<?xml version="1.0" standalone="no"?>
<!DOCTYPE svg PUBLIC "-//W3C//DTD SVG 20010904//EN"
 "http://www.w3.org/TR/2001/REC-SVG-20010904/DTD/svg10.dtd">
<svg version="1.0" xmlns="http://www.w3.org/2000/svg"
 width="1408.000000pt" height="1408.000000pt" viewBox="0 0 1408.000000 1408.000000"
 preserveAspectRatio="xMidYMid meet">
<metadata>
Created by potrace 1.14, written by Peter Selinger 2001-2017
</metadata>
<g transform="translate(0.000000,1408.000000) scale(0.100000,-0.100000)"
fill="#000000" stroke="none">
<path d="M2240 9747 c-141 -48 -222 -160 -227 -312 -5 -180 -8 -217 -15 -221
-5 -3 -8 -13 -8 -22 0 -15 -41 -83 -65 -107 -35 -36 -97 -75 -135 -86 -29 -8
-121 -13 -265 -15 -121 -1 -237 -5 -257 -8 -117 -19 -226 -122 -255 -240 -3
-11 -6 -250 -7 -531 -2 -537 -2 -544 -49 -623 -24 -40 -63 -82 -77 -82 -6 0
-10 -4 -10 -8 0 -11 -56 -43 -64 -35 -3 3 -6 2 -6 -4 0 -17 -92 -24 -332 -26
-219 -2 -224 -3 -278 -28 -63 -31 -108 -69 -142 -125 -41 -66 -51 -121 -46
-261 4 -116 7 -133 33 -183 34 -68 83 -114 155 -149 54 -26 59 -26 295 -29
240 -2 303 -10 356 -41 69 -43 118 -101 146 -173 14 -37 16 -111 19 -553 1
-280 5 -522 7 -536 11 -71 74 -158 148 -205 63 -40 112 -46 359 -49 129 -1
245 -5 256 -8 62 -16 131 -66 175 -127 45 -62 58 -115 62 -260 5 -173 20 -214
107 -297 19 -18 55 -43 80 -55 45 -23 46 -23 555 -23 281 0 519 2 530 5 46 12
112 55 152 99 54 59 84 144 83 236 0 20 0 41 0 63 0 9 0 33 0 52 0 19 1 54 3
78 1 23 -1 42 -5 42 -4 0 -3 12 1 28 5 15 5 37 0 49 -4 12 -4 25 1 28 5 3 5
18 0 35 -5 17 -6 30 -2 30 4 0 7 34 7 75 0 41 -3 75 -7 75 -4 0 -3 12 1 28 5
15 5 37 0 49 -4 12 -4 25 1 28 5 3 5 18 0 35 -5 17 -6 30 -2 30 8 0 6 95 -2
116 -3 8 -1 14 4 14 5 0 5 13 0 30 -5 17 -5 30 0 30 5 0 5 13 0 30 -5 17 -5
32 0 35 5 3 5 16 0 30 -6 15 -6 27 0 30 6 3 6 15 0 30 -6 15 -6 25 0 25 5 0 5
12 0 30 -5 17 -5 30 0 30 5 0 5 13 0 30 -5 17 -5 30 0 30 5 0 5 13 0 30 -5 17
-5 30 0 30 5 0 5 13 0 30 -5 19 -5 30 1 30 6 0 7 4 4 10 -6 9 -9 92 -5 115 2
14 2 148 0 160 -1 6 -1 12 0 15 1 3 3 25 4 50 3 67 22 119 61 173 35 47 116
106 146 107 9 0 19 3 23 7 3 4 14 8 24 10 9 2 1476 3 3259 4 2391 0 3252 -3
3283 -11 121 -33 220 -143 234 -259 2 -24 7 -45 10 -48 3 -3 1 -13 -4 -22 -5
-10 -5 -23 0 -31 5 -8 5 -21 0 -30 -5 -9 -5 -22 0 -30 4 -7 4 -24 0 -36 -6
-14 -5 -26 0 -29 5 -3 5 -18 0 -35 -5 -17 -5 -30 0 -30 5 0 5 -13 0 -30 -5
-16 -5 -30 0 -30 4 0 5 -15 1 -32 -4 -18 -4 -48 0 -66 3 -18 3 -35 -2 -38 -4
-2 -4 -16 1 -29 6 -15 6 -27 0 -30 -5 -3 -6 -15 -1 -27 4 -12 5 -38 1 -59 -4
-21 -4 -43 1 -50 4 -7 4 -20 -1 -29 -5 -9 -5 -22 0 -30 5 -8 5 -21 0 -30 -5
-9 -5 -22 0 -30 4 -7 4 -24 0 -36 -6 -14 -5 -26 0 -29 5 -3 5 -18 0 -35 -5
-17 -5 -30 0 -30 5 0 5 -13 0 -30 -5 -16 -5 -30 0 -30 4 0 5 -15 1 -32 -4 -18
-4 -48 0 -66 3 -18 3 -35 -2 -38 -4 -2 -4 -16 1 -29 6 -15 6 -27 0 -30 -5 -3
-6 -15 -1 -27 4 -12 5 -38 1 -59 -4 -21 -4 -43 1 -50 4 -7 4 -20 -1 -29 -5 -9
-5 -22 0 -30 5 -8 5 -21 0 -30 -5 -9 -5 -22 0 -30 4 -7 4 -24 0 -36 -6 -14 -5
-26 0 -29 5 -3 5 -18 0 -35 -5 -17 -5 -30 0 -30 5 0 5 -13 0 -30 -5 -17 -5
-30 0 -30 5 0 5 -13 0 -30 -5 -17 -5 -30 0 -30 5 0 5 -13 0 -30 -5 -16 -5 -30
-1 -30 4 0 7 -10 6 -22 -6 -86 79 -208 183 -259 l47 -24 495 -3 c524 -3 548
-1 620 44 107 67 153 152 157 294 5 165 11 209 33 256 24 48 105 134 127 134
7 0 13 4 13 9 0 23 104 34 334 37 198 2 246 5 285 20 62 23 110 58 150 110 63
82 63 85 65 654 2 453 4 520 19 553 9 20 15 38 15 40 -1 1 7 15 18 32 28 44
73 82 129 112 56 29 90 32 385 37 198 3 207 4 266 34 72 37 131 106 157 183
19 56 22 249 6 315 -25 99 -94 178 -189 219 -39 17 -76 19 -290 22 -266 3
-311 11 -379 61 -46 35 -52 40 -79 79 -55 78 -55 77 -58 633 -1 283 -5 526 -8
539 -25 108 -138 217 -246 238 -14 3 -131 6 -260 8 -129 2 -242 5 -250 7 -83
22 -173 96 -206 168 -27 59 -31 80 -33 160 -4 176 -7 197 -36 257 -32 66 -78
112 -150 151 l-50 27 -499 3 c-481 3 -500 2 -560 -18 -72 -24 -143 -84 -177
-150 -25 -47 -27 -56 -34 -107 -2 -18 -6 -36 -9 -41 -2 -4 -1 -14 4 -22 4 -7
4 -24 0 -36 -6 -14 -5 -26 0 -29 5 -3 5 -18 0 -35 -5 -17 -5 -30 0 -30 5 0 5
-13 0 -30 -5 -16 -5 -30 0 -30 4 0 5 -15 1 -32 -4 -18 -4 -48 0 -66 3 -18 3
-35 -2 -38 -4 -2 -4 -16 1 -29 6 -15 6 -27 0 -30 -5 -3 -6 -15 -1 -27 4 -12 5
-38 1 -59 -4 -21 -4 -43 1 -50 4 -7 4 -20 -1 -29 -5 -9 -5 -22 0 -30 5 -8 5
-21 0 -30 -5 -9 -5 -22 0 -30 4 -7 4 -24 0 -36 -6 -14 -5 -26 0 -29 5 -3 5
-18 0 -35 -5 -17 -5 -30 0 -30 5 0 5 -13 0 -30 -5 -16 -5 -30 0 -30 4 0 5 -15
1 -32 -4 -18 -4 -48 0 -66 3 -18 3 -35 -2 -38 -4 -2 -4 -16 1 -29 6 -15 6 -27
0 -30 -5 -3 -6 -15 -1 -27 4 -12 5 -38 1 -59 -4 -21 -4 -43 1 -50 4 -7 4 -20
-1 -29 -5 -9 -5 -22 0 -30 5 -8 5 -21 0 -30 -5 -9 -5 -22 0 -30 4 -7 4 -24 0
-36 -6 -14 -5 -26 0 -29 5 -3 5 -18 0 -35 -5 -17 -5 -30 0 -30 5 0 5 -13 0
-30 -5 -17 -5 -30 0 -30 5 0 5 -13 0 -30 -5 -17 -5 -30 0 -30 5 0 7 -6 4 -13
-2 -7 -6 -58 -7 -113 -3 -109 -21 -161 -83 -232 -35 -41 -111 -84 -174 -98 -8
-2 -1474 -4 -3256 -5 -2405 0 -3253 3 -3284 11 -129 35 -229 153 -236 280 -2
30 -4 57 -5 60 -1 3 -1 9 1 15 5 28 4 95 -2 95 -4 0 -3 14 2 30 5 17 5 30 0
30 -5 0 -5 13 0 30 5 17 5 30 0 30 -5 0 -5 13 0 29 4 15 4 34 0 42 -5 7 -5 20
0 29 5 9 5 22 0 30 -5 8 -5 21 0 30 5 9 5 22 0 30 -5 8 -5 21 0 31 5 9 7 19 4
22 -8 8 -9 106 -1 113 3 3 1 19 -3 35 -5 16 -6 29 -2 29 8 0 7 68 -1 76 -3 3
-2 16 3 28 4 13 4 29 0 36 -5 8 -6 19 -3 24 8 13 7 102 -2 116 -3 5 -2 10 4
10 6 0 6 11 1 30 -5 17 -5 30 0 30 5 0 5 13 0 30 -5 17 -5 30 0 30 5 0 5 13 0
30 -5 17 -5 30 0 30 5 0 5 13 0 30 -5 17 -5 30 0 30 5 0 5 13 0 30 -5 17 -5
30 0 30 5 0 5 13 0 30 -5 17 -5 30 0 30 5 0 5 13 0 30 -5 17 -5 30 0 30 5 0 5
13 0 30 -5 17 -5 30 0 30 5 0 5 13 0 29 -4 16 -6 31 -4 33 3 4 8 126 5 138 -1
3 -3 32 -5 65 -6 110 -76 213 -181 265 l-50 25 -505 2 c-366 1 -515 -2 -540
-10z"/>
</g>
</svg>
