<svg xmlns="http://www.w3.org/2000/svg" aria-hidden="true" style="position:absolute;width:0;height:0;overflow:hidden">
  <defs>
    <symbol id="icon-ua-flag" viewBox="0 0 32 32">
      <path fill="gold" d="M31.832 5.058H.243v23.508h31.589V5.058z" style="fill:var(--color1, #ffd700)"/>
      <path fill="#0057b7" d="M.243 5.058h31.589v11.754H.243V5.058z" style="fill:var(--color2, #0057b7)"/>
    </symbol>
    <symbol id="icon-master-card" viewBox="0 0 47 32">
      <path fill="#fafafa" d="M4.267.533h38.4A3.733 3.733 0 0 1 46.4 4.266v23.467a3.733 3.733 0 0 1-3.733 3.733h-38.4a3.733 3.733 0 0 1-3.733-3.733V4.266A3.733 3.733 0 0 1 4.267.533z" style="fill:var(--color3, #fafafa)"/>
      <path fill="#ed0006" d="M23.467 23.29a9.69 9.69 0 0 1-6.331 2.345c-5.39 0-9.76-4.396-9.76-9.818s4.37-9.818 9.76-9.818a9.69 9.69 0 0 1 6.331 2.345 9.69 9.69 0 0 1 6.331-2.345c5.391 0 9.76 4.395 9.76 9.818s-4.37 9.818-9.76 9.818a9.69 9.69 0 0 1-6.331-2.345z" style="fill:var(--color4, #ed0006)"/>
      <path fill="#f9a000" d="M23.467 23.29c2.099-1.801 3.429-4.48 3.429-7.472s-1.331-5.672-3.429-7.472a9.69 9.69 0 0 1 6.331-2.345c5.391 0 9.76 4.395 9.76 9.818s-4.37 9.818-9.76 9.818a9.69 9.69 0 0 1-6.331-2.345z" style="fill:var(--color5, #f9a000)"/>
      <path fill="#ff5e00" d="M23.467 23.29c2.099-1.801 3.429-4.48 3.429-7.472s-1.331-5.672-3.429-7.472c-2.099 1.801-3.429 4.48-3.429 7.472s1.331 5.672 3.429 7.472z" style="fill:var(--color6, #ff5e00)"/>
      <path fill="none" stroke="#fafafa" stroke-width="1.067" d="M4.267.533h38.4A3.733 3.733 0 0 1 46.4 4.266v23.467a3.733 3.733 0 0 1-3.733 3.733h-38.4a3.733 3.733 0 0 1-3.733-3.733V4.266A3.733 3.733 0 0 1 4.267.533z" style="stroke:var(--color3, #fafafa)"/>
    </symbol>
    <symbol id="icon-instagram" viewBox="0 0 32 32">
      <path stroke-linecap="round" stroke-linejoin="round" stroke-width="2.182" d="M22.667 2.667H9.334a6.667 6.667 0 0 0-6.667 6.667v13.333a6.667 6.667 0 0 0 6.667 6.667h13.333a6.667 6.667 0 0 0 6.667-6.667V9.334a6.667 6.667 0 0 0-6.667-6.667z"/>
      <path stroke-linecap="round" stroke-linejoin="round" stroke-width="2.182" d="M21.333 15.16a5.338 5.338 0 0 1-6.123 6.049 5.334 5.334 0 0 1-3.916-7.663 5.333 5.333 0 0 1 8.536-1.374 5.328 5.328 0 0 1 1.504 2.989zM23.333 8.667h.015"/>
    </symbol>
    <symbol id="icon-twitter" viewBox="0 0 32 32">
      <path stroke-linecap="round" stroke-linejoin="round" stroke-width="2.4" d="M30.667 4a14.53 14.53 0 0 1-4.187 2.04 5.975 5.975 0 0 0-6.637-1.661A5.979 5.979 0 0 0 16 10.04v1.333c-2.343.061-4.665-.459-6.759-1.513S5.347 6.717 4 4.799c0 0-5.333 12.533 6.667 17.867a15.519 15.519 0 0 1-9.333 2.667c12 6.667 26.667 0 26.667-15.333a5.966 5.966 0 0 0-.107-1.107A10.288 10.288 0 0 0 30.667 4z"/>
    </symbol>
    <symbol id="icon-header-menu-open" viewBox="0 0 32 32">
      <path stroke-linecap="round" stroke-linejoin="round" stroke-width="2.286" d="M4 16h24M4 8h24M4 24h24"/>
    </symbol>
    <symbol id="icon-scroll" viewBox="0 0 32 32">
      <path d="M16.946 17.867a1.334 1.334 0 0 1-1.894 0l-6.107-6.12a1.334 1.334 0 1 0-1.894 1.88l6.12 6.12a4.001 4.001 0 0 0 5.654 0l6.12-6.12a1.337 1.337 0 0 0-.434-2.172 1.328 1.328 0 0 0-1.46.292l-6.107 6.12z"/>
    </symbol>
    <symbol id="icon-close" viewBox="0 0 32 32">
      <path stroke-linecap="round" stroke-linejoin="round" stroke-width="3" d="M24 8 8 24M8 8l16 16"/>
    </symbol>
    <symbol id="icon-spoon" viewBox="0 0 32 32">
      <path fill="#fd9222" d="M15.451 14.106a5.154 5.154 0 0 1-1.177-3.282c0-4.324 5.181-8.642 10.362-8.642a5.183 5.183 0 0 1 5.181 5.182c0 5.182-4.317 10.364-8.646 10.364a5.15 5.15 0 0 1-3.281-1.177L5.132 29.312a1.73 1.73 0 0 1-2.445-2.445l12.764-12.761z" style="fill:var(--color7, #fd9222)"/>
    </symbol>
    <symbol id="icon-coin" viewBox="0 0 32 32">
      <path fill="#fd9222" d="M16 2.667c-7.333 0-13.333 6-13.333 13.333s6 13.333 13.333 13.333 13.333-6 13.333-13.333S23.333 2.667 16 2.667zm0 24c-5.867 0-10.667-4.8-10.667-10.667S10.133 5.333 16 5.333 26.667 10.133 26.667 16 21.867 26.667 16 26.667z" style="fill:var(--color7, #fd9222)"/>
      <path fill="#fd9222" d="M17.733 14.667h-3.467c-.667 0-1.2-.533-1.2-1.2s.533-1.2 1.2-1.2h4.933c.8 0 1.333-.533 1.333-1.333s-.533-1.333-1.333-1.333h-1.867v-1.2c0-.8-.533-1.333-1.333-1.333s-1.333.533-1.333 1.333v1.2h-.4c-2.133 0-3.867 1.733-3.867 3.867s1.733 3.867 3.867 3.867h3.333c.667 0 1.2.533 1.2 1.2s-.533 1.2-1.2 1.2h-4.933c-.8 0-1.333.533-1.333 1.333s.533 1.333 1.333 1.333h2v1.2c0 .8.533 1.333 1.333 1.333s1.333-.533 1.333-1.333v-1.2h.4c2.133 0 3.867-1.733 3.867-3.867s-1.733-3.867-3.867-3.867z" style="fill:var(--color7, #fd9222)"/>
    </symbol>
    <symbol id="icon-chocolate-bar" viewBox="0 0 32 32">
      <path d="m13.822 2.413 7.527 7.536.08-.08a.856.856 0 0 1 1.184-.013l.873.873c.305.305.315.77.083 1.094l-.004.007-.143.192 6.16 6.16c.55.55.55 1.43 0 1.98l-9.43 9.43c-.55.55-1.43.55-1.98 0l-4.447-4.447a.853.853 0 0 1-.612.317.842.842 0 0 1-.644-.246l-2.6-2.6a.856.856 0 0 1-.013-1.184l.006-.007.077-.076-7.527-7.527c-.55-.55-.55-1.43 0-1.98l9.43-9.43c.55-.55 1.43-.55 1.98 0v.001zm6.582 8.48-1.756-1.755a.59.59 0 0 0-.85 0l-3.58 3.58a.621.621 0 0 0-.179.43.602.602 0 0 0 .179.43l1.749 1.749.61-.61-1.565-1.565 3.21-3.22 1.569 1.574.613-.613zm-5.076 5.072-1.754-1.754a.59.59 0 0 0-.85 0l-3.59 3.59c-.24.23-.24.61 0 .85l1.752 1.752.616-.616-1.57-1.564 3.22-3.21 1.564 1.563.612-.611zM8.822 8.193l3.58 3.58c.24.24.62.24.85-.01l3.58-3.58a.57.57 0 0 0 .18-.42h.01c0-.15-.06-.31-.18-.43l-3.58-3.58a.602.602 0 0 0-.86 0l-3.58 3.59c-.24.23-.24.61 0 .85zm-5.07 5.07 3.58 3.58c.24.24.62.24.85 0l3.58-3.58a.578.578 0 0 0 .18-.43h.01c0-.16-.06-.31-.18-.43l-3.58-3.58a.59.59 0 0 0-.85 0l-3.59 3.59c-.24.23-.24.61 0 .85zm6.933 8.754 2.362 2.363 9.636-13.04-.655-.655-11.343 11.332z" style="fill:var(--color8, #000)"/>
      <path fill="#fd9222" d="m13.822 2.413 7.527 7.536.08-.08a.856.856 0 0 1 1.184-.013l.873.873c.305.305.315.77.083 1.094l-.004.007-.143.192 6.16 6.16c.55.55.55 1.43 0 1.98l-9.43 9.43c-.55.55-1.43.55-1.98 0l-4.447-4.447a.853.853 0 0 1-.612.317.842.842 0 0 1-.644-.246l-2.6-2.6a.856.856 0 0 1-.013-1.184l.006-.007.077-.076-7.527-7.527c-.55-.55-.55-1.43 0-1.98l9.43-9.43c.55-.55 1.43-.55 1.98 0v.001zm6.582 8.48-1.756-1.755a.59.59 0 0 0-.85 0l-3.58 3.58a.621.621 0 0 0-.179.43.602.602 0 0 0 .179.43l1.749 1.749.61-.61-1.565-1.565 3.21-3.22 1.569 1.574.613-.613zm-5.076 5.072-1.754-1.754a.59.59 0 0 0-.85 0l-3.59 3.59c-.24.23-.24.61 0 .85l1.752 1.752.616-.616-1.57-1.564 3.22-3.21 1.564 1.563.612-.611zM8.822 8.193l3.58 3.58c.24.24.62.24.85-.01l3.58-3.58a.57.57 0 0 0 .18-.42h.01c0-.15-.06-.31-.18-.43l-3.58-3.58a.602.602 0 0 0-.86 0l-3.58 3.59c-.24.23-.24.61 0 .85zm-5.07 5.07 3.58 3.58c.24.24.62.24.85 0l3.58-3.58a.578.578 0 0 0 .18-.43h.01c0-.16-.06-.31-.18-.43l-3.58-3.58a.59.59 0 0 0-.85 0l-3.59 3.59c-.24.23-.24.61 0 .85zm6.933 8.754 2.362 2.363 9.636-13.04-.655-.655-11.343 11.332z" style="fill:var(--color7, #fd9222)"/>
    </symbol>
    <symbol id="icon-header-chocolate" viewBox="0 0 32 32">
      <path fill="#fcf1e0" d="M3.944 20.076 14.721 2.652l.64-.674 8.236 5.491.056 3.314 2.01 3.28-8.88 14.077-12.839-8.063z" style="fill:var(--color9, #fcf1e0)"/>
      <path fill="none" stroke="#fd9222" stroke-linecap="round" stroke-linejoin="round" stroke-width="2.743" d="M21.635 23.88 7.449 15.016m3.912-6.417 14.185 8.864M10.63 25.864l11.736-19.25m4.811 8.175c-3.04-1.899-4.234-3.384-2.278-6.592l-9.626-6.015-11.736 19.25 14.185 8.864 9.454-15.507z" style="stroke:var(--color7, #fd9222)"/>
    </symbol>
    <symbol id="icon-video-play" viewBox="0 0 32 32"><path fill="#F5F4F4" d="M11.886 23.771V10.057l12.8 6.857-12.8 6.857z" style="fill:var(--color1, #F5F4F4)"/><path fill="none" stroke="#fff" stroke-width=".914" d="M31.543 16c0 8.584-6.959 15.543-15.543 15.543S.457 24.584.457 16 7.416.457 16 .457 31.543 7.416 31.543 16z" style="stroke:var(--color2, #fff)"/></symbol>
  </defs>
</svg>
