<svg xmlns="http://www.w3.org/2000/svg"><symbol viewBox="0 0 16.833632 17.816992" id="Apple">
<g id="fluent:food-apple-20-filled">
<path id="Vector" d="M12.1582 2.97399C12.2222 2.9546 12.2817 2.92257 12.3331 2.8798C12.3844 2.83703 12.4267 2.7844 12.4574 2.725C12.4881 2.6656 12.5066 2.60065 12.5117 2.534C12.5169 2.46734 12.5086 2.40032 12.4874 2.33692C12.4662 2.27351 12.4325 2.215 12.3883 2.16485C12.3441 2.1147 12.2903 2.07392 12.23 2.04493C12.1698 2.01594 12.1043 1.99933 12.0375 1.99608C11.9708 1.99282 11.904 2.00299 11.8412 2.02599C10.9032 2.33799 10.3192 3.10799 9.97524 3.93299C9.92905 4.04451 9.88669 4.15757 9.84824 4.27199C9.66091 3.91713 9.42122 3.59249 9.13724 3.30899C8.75287 2.92379 8.29377 2.62129 7.78818 2.42009C7.28258 2.21888 6.74117 2.12322 6.19724 2.13899C5.61724 2.15499 5.15424 2.61899 5.13824 3.19799C5.12247 3.74192 5.21813 4.28333 5.41934 4.78893C5.62054 5.29452 5.92304 5.75362 6.30824 6.13799L6.33924 6.16799C5.49923 6.34995 4.74012 6.7975 4.17425 7.44442C3.60838 8.09133 3.26581 8.90324 3.19724 9.75999L3.19124 9.83399C3.05922 11.4812 3.4102 13.1311 4.20124 14.582L4.56124 15.24C4.57124 15.257 4.58124 15.274 4.59324 15.29L5.59324 16.692C5.81988 17.0094 6.11296 17.2736 6.45207 17.4663C6.79119 17.6589 7.16821 17.7754 7.5569 17.8076C7.94559 17.8397 8.33662 17.7868 8.7028 17.6525C9.06897 17.5183 9.40149 17.3058 9.67724 17.03C9.71958 16.9876 9.76986 16.954 9.82519 16.9311C9.88053 16.9082 9.93984 16.8964 9.99974 16.8964C10.0596 16.8964 10.1189 16.9082 10.1743 16.9311C10.2296 16.954 10.2799 16.9876 10.3222 17.03C10.598 17.3058 10.9305 17.5183 11.2967 17.6525C11.6629 17.7868 12.0539 17.8397 12.4426 17.8076C12.8313 17.7754 13.2083 17.6589 13.5474 17.4663C13.8865 17.2736 14.1796 17.0094 14.4062 16.692L15.4062 15.291C15.4179 15.2746 15.4286 15.2576 15.4382 15.24L15.7972 14.582C16.5883 13.1311 16.9393 11.4812 16.8072 9.83399L16.8022 9.75999C16.758 9.20777 16.5995 8.67077 16.3368 8.18301C16.0742 7.69525 15.7131 7.26737 15.2764 6.92648C14.8397 6.58559 14.3369 6.33913 13.8 6.20271C13.2631 6.06629 12.7037 6.04289 12.1572 6.13399L10.5002 6.40999C10.5102 5.72899 10.6302 4.96299 10.8992 4.31699C11.1792 3.64199 11.5952 3.16199 12.1572 2.97399H12.1582ZM6.90824 8.97399C6.75471 9.02253 6.61232 9.10098 6.48926 9.20481C6.3662 9.30865 6.26491 9.43582 6.19124 9.57899C6.00624 9.92699 5.87924 10.501 5.99624 11.438C6.00936 11.5679 5.97115 11.6978 5.88979 11.7999C5.80842 11.902 5.69034 11.9682 5.56079 11.9844C5.43124 12.0006 5.30049 11.9655 5.19649 11.8865C5.09249 11.8076 5.02349 11.6911 5.00424 11.562C4.87124 10.498 4.99424 9.69699 5.30924 9.10799C5.62924 8.50799 6.11624 8.18399 6.59224 8.02499C6.65455 8.00424 6.72034 7.99597 6.78585 8.00064C6.85136 8.00532 6.9153 8.02285 6.97404 8.05224C7.03277 8.08163 7.08514 8.1223 7.12815 8.17193C7.17117 8.22156 7.20399 8.27918 7.22474 8.34149C7.24549 8.4038 7.25376 8.46959 7.24908 8.5351C7.24441 8.60061 7.22687 8.66455 7.19748 8.72329C7.16809 8.78202 7.12742 8.83439 7.07779 8.8774C7.02816 8.92042 6.97055 8.95324 6.90824 8.97399Z" fill="#EF8964"/>
</g>
</symbol><symbol viewBox="0 0 20 16" id="Arrow">
<g id="arrow">
<path id="Icon" d="M7.5 14L14 7.5M14 7.5L7.5 1M14 7.5H1" stroke-width="1.3" stroke-linecap="round" stroke-linejoin="round"/>
</g>
</symbol>
<symbol viewBox="0 0 17.269333 18.333334" id="Bubble">
<g id="vuesax/linear/bubble">
<g id="bubble">
<path id="Vector" d="M12.9938 10.2163C15.3548 10.2163 17.2688 8.30228 17.2688 5.94126C17.2688 3.58025 15.3548 1.66626 12.9938 1.66626C10.6327 1.66626 8.71875 3.58025 8.71875 5.94126C8.71875 8.30228 10.6327 10.2163 12.9938 10.2163Z" fill="#EF8964"/>
<path id="Vector_2" d="M5.29712 16.1994C6.71465 16.1994 7.8638 15.0502 7.8638 13.6327C7.8638 12.2152 6.71465 11.066 5.29712 11.066C3.87959 11.066 2.73047 12.2152 2.73047 13.6327C2.73047 15.0502 3.87959 16.1994 5.29712 16.1994Z" fill="#EF8964"/>
<path id="Vector_3" d="M13.8443 18.3328C15.0225 18.3328 15.9776 17.3777 15.9776 16.1995C15.9776 15.0213 15.0225 14.0662 13.8443 14.0662C12.6661 14.0662 11.7109 15.0213 11.7109 16.1995C11.7109 17.3777 12.6661 18.3328 13.8443 18.3328Z" fill="#EF8964"/>
</g>
<g>
<symbol viewBox="0 0 20 20" fill="none">
<g id="Log-out" fill="transparent">
<path id="Accent" d="M7.5 2.5H6.5C5.09987 2.5 4.3998 2.5 3.86502 2.77248C3.39462 3.01217 3.01217 3.39462 2.77248 3.86502C2.5 4.3998 2.5 5.09987 2.5 6.5V13.5C2.5 14.9001 2.5 15.6002 2.77248 16.135C3.01217 16.6054 3.39462 16.9878 3.86502 17.2275C4.3998 17.5 5.09987 17.5 6.5 17.5H7.5" stroke-width="1.5" stroke-linecap="round" stroke-linejoin="round"/>
<path id="Icon" d="M13.3333 14.1667L17.5 10M17.5 10L13.3333 5.83337M17.5 10H7.5"  stroke-width="1.5" stroke-linecap="round" stroke-linejoin="round"/>
</g>
</symbol>

</g>
</g>

</symbol><symbol viewBox="0 0 17.5 18.333334" id="Calendar">
<g id="calendar">
<path id="Vector" d="M15.8333 3.33337H4.16667C3.24619 3.33337 2.5 4.07957 2.5 5.00004V16.6667C2.5 17.5872 3.24619 18.3334 4.16667 18.3334H15.8333C16.7538 18.3334 17.5 17.5872 17.5 16.6667V5.00004C17.5 4.07957 16.7538 3.33337 15.8333 3.33337Z" stroke="#EF8964" stroke-width="1.8" stroke-linecap="round" stroke-linejoin="round"/>
<path id="Vector_2" d="M13.332 1.66663V4.99996" stroke="#EF8964" stroke-width="1.8" stroke-linecap="round" stroke-linejoin="round"/>
<path id="Vector_3" d="M6.66797 1.66663V4.99996" stroke="#EF8964" stroke-width="1.8" stroke-linecap="round" stroke-linejoin="round"/>
<path id="Vector_4" d="M2.5 8.33337H17.5" stroke="#EF8964" stroke-width="1.8" stroke-linecap="round" stroke-linejoin="round"/>
</g>
</symbol><symbol viewBox="0 0 17.848 20" id="Calories">
<g id="calories 1">
<g id="Group">
<path id="Vector" d="M9.99898 13.9321C9.40789 14.382 8.1875 15.4946 8.1875 17.0105C8.1875 18.0112 8.99969 18.8254 9.99805 18.8254C10.9964 18.8254 11.8086 18.0112 11.8086 17.0105C11.8086 15.5749 10.5875 14.41 9.99898 13.9321Z" fill="#EF8964"/>
<path id="Vector_2" d="M14.2437 3.48096C14.0241 3.23264 13.6452 3.2176 13.4061 3.4408L10.6488 6.0142V0.624943C10.6488 0.173811 10.1049 -0.163259 9.69754 0.0831466C9.62043 0.129787 7.78809 1.24869 5.93664 3.28061C3.68551 5.75123 2.15234 8.75939 2.15234 12.133C2.15234 16.4709 5.67293 20 10.0003 20C8.35574 20 7.01785 18.6588 7.01785 17.0103C7.01785 14.3466 9.6041 12.7693 9.71418 12.7034C9.90715 12.5881 10.1488 12.5935 10.3364 12.7171C10.4445 12.7883 12.9827 14.4908 12.9827 17.0103C12.9827 18.6588 11.6448 20 10.0003 20C14.3276 20 17.8482 16.4709 17.8482 12.133C17.8482 8.85744 16.4028 5.92154 14.2437 3.48096Z" fill="#EF8964"/>
</g>
</g>
</symbol><symbol viewBox="0 0 12.664001 14.957334" id="Chevron">
<g id="icon / chevron right">
<path id="Vector 2 (Stroke)" fill-rule="evenodd" clip-rule="evenodd" d="M5.45718 14.9572L4.04297 13.5429L9.83586 7.75005L4.04297 1.95715L5.45718 0.542938L12.6643 7.75005L5.45718 14.9572Z" fill="#EFEDE8"/>
</g>
</symbol><symbol id="Arrow-back" viewBox="0 0 32 32">
<path stroke-linejoin="round" stroke-linecap="round" stroke-miterlimit="4" stroke-width="2.6" d="M17 28l-13-13M4 15l13-13M4 15h26"></path>
</symbol><symbol viewBox="0 0 20 17" id="Dumbbell">
<g id="dumbbell">
<path id="Vector" d="M3.25 5H1.75C1.33438 5 1 5.33437 1 5.75V9H0.25C0.1125 9 0 9.1125 0 9.25V10.75C0 10.8875 0.1125 11 0.25 11H1V14.25C1 14.6656 1.33438 15 1.75 15H3.25C3.66563 15 4 14.6656 4 14.25V5.75C4 5.33437 3.66563 5 3.25 5ZM19.75 9H19V5.75C19 5.33437 18.6656 5 18.25 5H16.75C16.3344 5 16 5.33437 16 5.75V14.25C16 14.6656 16.3344 15 16.75 15H18.25C18.6656 15 19 14.6656 19 14.25V11H19.75C19.8875 11 20 10.8875 20 10.75V9.25C20 9.1125 19.8875 9 19.75 9ZM14.25 3H12.75C12.3344 3 12 3.33437 12 3.75V9H8V3.75C8 3.33437 7.66563 3 7.25 3H5.75C5.33437 3 5 3.33437 5 3.75V16.25C5 16.6656 5.33437 17 5.75 17H7.25C7.66563 17 8 16.6656 8 16.25V11H12V16.25C12 16.6656 12.3344 17 12.75 17H14.25C14.6656 17 15 16.6656 15 16.25V3.75C15 3.33437 14.6656 3 14.25 3Z" fill="#EF8964"/>
</g>
</symbol><symbol viewBox="0 0 12 19.010668" id="Exclamation-mark">
<g id="tabler:exclamation-mark">
<path id="Vector" d="M12 19V19.01M12 15V5" stroke="#EFEDE8" stroke-width="2" stroke-linecap="round" stroke-linejoin="round"/>
</g>
</symbol><symbol viewBox="0 0 15.830666 17.498945" id="Fluent_food">
<g id="fluent:food-24-filled">
<path id="Vector" d="M14.9974 2.5C15.2015 2.50003 15.3985 2.57496 15.551 2.7106C15.7036 2.84623 15.801 3.03312 15.8249 3.23583L15.8307 3.33333V16.6667C15.8305 16.8791 15.7492 17.0834 15.6034 17.2378C15.4575 17.3923 15.2583 17.4852 15.0462 17.4976C14.8342 17.5101 14.6254 17.4411 14.4625 17.3048C14.2997 17.1685 14.195 16.9751 14.1699 16.7642L14.1641 16.6667V12.5H13.3307C13.1266 12.5 12.9296 12.425 12.7771 12.2894C12.6246 12.1538 12.5271 11.9669 12.5032 11.7642L12.4974 11.6667V6.66667C12.4974 4.825 13.7474 2.5 14.9974 2.5ZM9.9974 2.5C10.2015 2.50003 10.3985 2.57496 10.551 2.7106C10.7036 2.84623 10.801 3.03312 10.8249 3.23583L10.8307 3.33333V7.5C10.8306 8.23906 10.585 8.95715 10.1325 9.54148C9.68003 10.1258 9.04625 10.5433 8.33073 10.7283V16.6667C8.33049 16.8791 8.24916 17.0834 8.10336 17.2378C7.95755 17.3923 7.75827 17.4852 7.54623 17.4976C7.3342 17.5101 7.12541 17.4411 6.96254 17.3048C6.79966 17.1685 6.69498 16.9751 6.6699 16.7642L6.66406 16.6667V10.7283C5.97694 10.5507 5.3644 10.1585 4.91553 9.60876C4.46666 9.05903 4.20487 8.38043 4.16823 7.67167L4.16406 7.5V3.33333C4.1643 3.12093 4.24563 2.91664 4.39144 2.76219C4.53724 2.60775 4.73652 2.5148 4.94856 2.50236C5.16059 2.48991 5.36938 2.5589 5.53226 2.69522C5.69513 2.83155 5.79981 3.02492 5.8249 3.23583L5.83073 3.33333V7.5C5.83074 7.79255 5.90775 8.07995 6.05403 8.33331C6.20031 8.58667 6.4107 8.79706 6.66406 8.94333V3.33333C6.6643 3.12093 6.74563 2.91664 6.89144 2.76219C7.03724 2.60775 7.23652 2.5148 7.44856 2.50236C7.66059 2.48991 7.86938 2.5589 8.03226 2.69522C8.19513 2.83155 8.29981 3.02492 8.3249 3.23583L8.33073 3.33333L8.33156 8.94333C8.56412 8.80891 8.76073 8.62027 8.90467 8.39349C9.0486 8.1667 9.13559 7.90848 9.15823 7.64083L9.16406 7.5V3.33333C9.16406 3.11232 9.25186 2.90036 9.40814 2.74408C9.56442 2.5878 9.77638 2.5 9.9974 2.5Z" fill="#EF8964"/>
</g>
</symbol><symbol viewBox="0 0 21 21" id="Gridicons_user">
<g id="gridicons:user">
<path id="Vector" d="M10.5 3.5C11.4283 3.5 12.3185 3.86875 12.9749 4.52513C13.6313 5.1815 14 6.07174 14 7C14 7.92826 13.6313 8.8185 12.9749 9.47488C12.3185 10.1313 11.4283 10.5 10.5 10.5C9.57175 10.5 8.68151 10.1313 8.02513 9.47488C7.36875 8.8185 7 7.92826 7 7C7 6.07174 7.36875 5.1815 8.02513 4.52513C8.68151 3.86875 9.57175 3.5 10.5 3.5ZM10.5 17.5C10.5 17.5 17.5 17.5 17.5 15.75C17.5 13.65 14.0875 11.375 10.5 11.375C6.9125 11.375 3.5 13.65 3.5 15.75C3.5 17.5 10.5 17.5 10.5 17.5Z" fill="#EFEDE8" fill-opacity="0.1"/>
</g>
<!-- </symbol><symbol viewBox="0 0 17.5 17.5" id="Log-out">
<g id="log-out-01">
<path id="Accent" d="M7.5 2.5H6.5C5.09987 2.5 4.3998 2.5 3.86502 2.77248C3.39462 3.01217 3.01217 3.39462 2.77248 3.86502C2.5 4.3998 2.5 5.09987 2.5 6.5V13.5C2.5 14.9001 2.5 15.6002 2.77248 16.135C3.01217 16.6054 3.39462 16.9878 3.86502 17.2275C4.3998 17.5 5.09987 17.5 6.5 17.5H7.5" stroke="#EFEDE8" stroke-width="1.5" stroke-linecap="round" stroke-linejoin="round"/>
<path id="Icon" d="M13.3333 14.1666L17.5 9.99998M17.5 9.99998L13.3333 5.83331M17.5 9.99998H7.5" stroke="#EFEDE8" stroke-width="1.5" stroke-linecap="round" stroke-linejoin="round"/>
</g> -->
</symbol><symbol viewBox="0 0 24 24" id="Menu">
<g id="menu-02">
<path id="Icon" d="M3 12H15M3 6H21M3 18H21" stroke="#E6533C" stroke-width="2" stroke-linecap="round" stroke-linejoin="round"/>
</g>
</symbol><symbol viewBox="0 0 28.5 28" id="Pause-square">
<g id="pause-square">
<path id="Accent" d="M4.5 10.4C4.5 8.15979 4.5 7.03969 4.93597 6.18404C5.31947 5.43139 5.93139 4.81947 6.68404 4.43597C7.53969 4 8.65979 4 10.9 4H22.1C24.3402 4 25.4603 4 26.316 4.43597C27.0686 4.81947 27.6805 5.43139 28.064 6.18404C28.5 7.03969 28.5 8.15979 28.5 10.4V21.6C28.5 23.8402 28.5 24.9603 28.064 25.816C27.6805 26.5686 27.0686 27.1805 26.316 27.564C25.4603 28 24.3402 28 22.1 28H10.9C8.65979 28 7.53969 28 6.68404 27.564C5.93139 27.1805 5.31947 26.5686 4.93597 25.816C4.5 24.9603 4.5 23.8402 4.5 21.6V10.4Z" fill="#E6533C" stroke="#E6533C" stroke-linecap="round" stroke-linejoin="round"/>
<path id="Icon" d="M13.168 20V12M19.8346 20V12" stroke="#EFEDE8" stroke-width="1.3" stroke-linecap="round" stroke-linejoin="round"/>
</g>
</symbol><symbol viewBox="0 0 8 13" id="Polygon">
<path id="Polygon 1" d="M9 6L0 11.1962V0.803848L9 6Z" fill="#EFEDE8"/>
</symbol><symbol viewBox="0 0 82.00016 12.5" id="PowerPulse">
<g id="PowerPulse">
<path d="M0 12.2955V1.28637H4.11949C4.74565 1.28637 5.31139 1.43578 5.81672 1.7346C6.32753 2.03342 6.73124 2.43447 7.02785 2.93775C7.32445 3.44102 7.47275 3.9941 7.47275 4.59699C7.47275 5.2156 7.31896 5.77654 7.01137 6.27982C6.70927 6.77785 6.30282 7.17628 5.792 7.4751C5.28118 7.76868 4.72368 7.91547 4.11949 7.91547H2.01031V12.2955H0ZM2.01031 5.99672H3.90528C4.19089 5.99672 4.45179 5.92857 4.68798 5.79227C4.92416 5.65596 5.11091 5.47248 5.24823 5.24181C5.39104 5.01114 5.46244 4.75426 5.46244 4.47117C5.46244 4.18283 5.39104 3.92333 5.24823 3.69266C5.11091 3.46199 4.92416 3.27851 4.68798 3.1422C4.45179 3.0059 4.19089 2.93775 3.90528 2.93775H2.01031V5.99672Z" fill="#EFEDE8"/>
<path d="M12.0411 12.5C11.2832 12.5 10.5911 12.3139 9.96491 11.9417C9.34424 11.5695 8.84716 11.0714 8.47366 10.4476C8.10565 9.81848 7.92165 9.12385 7.92165 8.3637C7.92165 7.78703 8.02875 7.24967 8.24297 6.75164C8.45718 6.24836 8.75104 5.80799 9.12454 5.43054C9.50353 5.04784 9.94294 4.74902 10.4428 4.53408C10.9426 4.31914 11.4754 4.21167 12.0411 4.21167C12.7991 4.21167 13.4884 4.39777 14.1091 4.76999C14.7353 5.1422 15.2324 5.64286 15.6004 6.27195C15.9739 6.90105 16.1606 7.5983 16.1606 8.3637C16.1606 8.93512 16.0535 9.46986 15.8393 9.96789C15.6251 10.4659 15.3285 10.9063 14.9495 11.289C14.576 11.6664 14.1393 11.9626 13.6395 12.1776C13.1452 12.3925 12.6124 12.5 12.0411 12.5ZM12.0411 10.5813C12.4421 10.5813 12.8019 10.479 13.1204 10.2746C13.439 10.0701 13.6889 9.80013 13.8702 9.46461C14.0569 9.1291 14.1503 8.76212 14.1503 8.3637C14.1503 7.95478 14.0542 7.58257 13.8619 7.24705C13.6752 6.90629 13.4198 6.6363 13.0957 6.43709C12.7772 6.23263 12.4256 6.13041 12.0411 6.13041C11.6457 6.13041 11.2886 6.23263 10.9701 6.43709C10.6515 6.64155 10.3988 6.91416 10.2121 7.25492C10.0253 7.59568 9.93196 7.96527 9.93196 8.3637C9.93196 8.77785 10.0281 9.15269 10.2203 9.4882C10.4126 9.82372 10.668 10.0911 10.9865 10.2903C11.3106 10.4843 11.6621 10.5813 12.0411 10.5813Z" fill="#EFEDE8"/>
<path d="M21.3086 12.2955H19.3147L16.5629 4.43185H18.532L20.3199 9.51966L22.0995 4.43185H24.0851L25.8647 9.51966L27.6526 4.43185H29.6217L26.8699 12.2955H24.876L23.0882 7.18414L21.3086 12.2955Z" fill="#EFEDE8"/>
<path d="M34.1512 12.5C33.3932 12.5 32.7011 12.3139 32.075 11.9417C31.4543 11.5695 30.9572 11.0688 30.5837 10.4397C30.2157 9.81062 30.0317 9.11599 30.0317 8.35583C30.0317 7.7844 30.1388 7.24967 30.353 6.75164C30.5672 6.24836 30.8611 5.80799 31.2346 5.43054C31.6136 5.04784 32.053 4.74902 32.5528 4.53408C33.0527 4.31914 33.5855 4.21167 34.1512 4.21167C34.7938 4.21167 35.3816 4.34273 35.9143 4.60485C36.4526 4.86173 36.9085 5.2156 37.282 5.66645C37.6555 6.1173 37.9274 6.63106 38.0977 7.20773C38.2679 7.7844 38.3064 8.38729 38.213 9.01638H32.1903C32.2672 9.30996 32.3936 9.57471 32.5693 9.81062C32.7451 10.0413 32.9675 10.2274 33.2367 10.3689C33.5058 10.5052 33.8107 10.576 34.1512 10.5813C34.5027 10.5865 34.8213 10.5079 35.1069 10.3453C35.398 10.1776 35.6397 9.95216 35.832 9.66907L37.8835 10.1252C37.5484 10.8224 37.0486 11.3938 36.384 11.8394C35.7194 12.2798 34.9751 12.5 34.1512 12.5ZM32.1244 7.57733H36.178C36.1176 7.26278 35.9885 6.97969 35.7908 6.72805C35.5985 6.47117 35.3596 6.26671 35.074 6.11468C34.7883 5.96265 34.4808 5.88663 34.1512 5.88663C33.8216 5.88663 33.5168 5.96265 33.2367 6.11468C32.9566 6.26147 32.7176 6.4633 32.5199 6.72018C32.3276 6.97182 32.1958 7.25754 32.1244 7.57733Z" fill="#EFEDE8"/>
<path d="M39.5618 12.2955L39.5535 4.43185H41.5638L41.5721 5.13172C41.8522 4.84862 42.1872 4.62582 42.5772 4.4633C42.9672 4.29554 43.3874 4.21167 43.8378 4.21167C44.1399 4.21167 44.442 4.2536 44.7441 4.33748L43.9531 6.27195C43.7444 6.19332 43.5357 6.154 43.327 6.154C43.0029 6.154 42.7063 6.23001 42.4372 6.38204C42.1735 6.52883 41.9621 6.73067 41.8028 6.98755C41.649 7.23919 41.5721 7.51966 41.5721 7.82896V12.2955H39.5618Z" fill="#EFEDE8"/>
<path d="M45.6684 12.2955V1.28637H49.7879C50.414 1.28637 50.9798 1.43578 51.4851 1.7346C51.9959 2.03342 52.3996 2.43447 52.6962 2.93775C52.9928 3.44102 53.1411 3.9941 53.1411 4.59699C53.1411 5.2156 52.9873 5.77654 52.6798 6.27982C52.3777 6.77785 51.9712 7.17628 51.4604 7.4751C50.9496 7.76868 50.3921 7.91547 49.7879 7.91547H47.6787V12.2955H45.6684ZM47.6787 5.99672H49.5737C49.8593 5.99672 50.1202 5.92857 50.3564 5.79227C50.5926 5.65596 50.7793 5.47248 50.9166 5.24181C51.0594 5.01114 51.1308 4.75426 51.1308 4.47117C51.1308 4.18283 51.0594 3.92333 50.9166 3.69266C50.7793 3.46199 50.5926 3.27851 50.3564 3.1422C50.1202 3.0059 49.8593 2.93775 49.5737 2.93775H47.6787V5.99672Z" fill="#EFEDE8"/>
<path d="M53.9962 9.38598V4.43185H56.0065V8.8827C56.0065 9.19201 56.0861 9.4751 56.2454 9.73198C56.4047 9.98362 56.6162 10.1855 56.8798 10.3375C57.149 10.4843 57.4428 10.5577 57.7614 10.5577C58.091 10.5577 58.3876 10.4843 58.6512 10.3375C58.9149 10.1855 59.1263 9.98362 59.2856 9.73198C59.4449 9.4751 59.5246 9.19201 59.5246 8.8827V4.43185H61.5349L61.5431 12.2955H59.5328L59.5246 11.5799C59.2389 11.863 58.9011 12.0885 58.5112 12.2562C58.1212 12.4187 57.7037 12.5 57.2588 12.5C56.6601 12.5 56.1136 12.3611 55.6193 12.0832C55.1249 11.8001 54.7295 11.4253 54.4329 10.9587C54.1418 10.4869 53.9962 9.96265 53.9962 9.38598Z" fill="#EFEDE8"/>
<path d="M63.2406 12.2955V0.5H65.2509V12.2955H63.2406Z" fill="#EFEDE8"/>
<path d="M69.6618 12.4371C69.2334 12.4109 68.8187 12.3296 68.4177 12.1933C68.0223 12.0518 67.6708 11.8604 67.3632 11.6193C67.0556 11.3781 66.8194 11.0898 66.6546 10.7543L68.3518 10.0623C68.4177 10.1671 68.5249 10.2798 68.6732 10.4004C68.8215 10.5157 68.9972 10.6127 69.2005 10.6913C69.4092 10.77 69.6371 10.8093 69.8843 10.8093C70.093 10.8093 70.2907 10.7831 70.4775 10.7307C70.6697 10.673 70.8235 10.5865 70.9389 10.4712C71.0597 10.3558 71.1201 10.2064 71.1201 10.0229C71.1201 9.82897 71.0487 9.67955 70.9059 9.57471C70.7686 9.46461 70.5928 9.38336 70.3786 9.33093C70.1699 9.27326 69.9667 9.22084 69.7689 9.17366C69.2471 9.07405 68.761 8.9194 68.3106 8.7097C67.8657 8.5 67.506 8.23001 67.2313 7.89974C66.9622 7.56422 66.8276 7.16055 66.8276 6.68873C66.8276 6.16972 66.9704 5.72149 67.2561 5.34404C67.5472 4.96658 67.9234 4.67562 68.3848 4.47117C68.8517 4.26671 69.3542 4.16448 69.8925 4.16448C70.5462 4.16448 71.1449 4.29554 71.6886 4.55767C72.2379 4.81455 72.6718 5.1789 72.9904 5.65072L71.4003 6.54718C71.3234 6.42136 71.2163 6.30603 71.0789 6.20118C70.9416 6.09109 70.7851 6.00197 70.6093 5.93381C70.4336 5.86042 70.2495 5.81848 70.0573 5.808C69.8101 5.79751 69.5849 5.81848 69.3817 5.8709C69.1785 5.92333 69.0137 6.01245 68.8874 6.13827C68.7665 6.26409 68.7061 6.43185 68.7061 6.64155C68.7061 6.84076 68.7885 6.99017 68.9533 7.08978C69.1181 7.18414 69.3158 7.25754 69.5465 7.30996C69.7827 7.36239 70.0079 7.42005 70.2221 7.48296C70.7054 7.63499 71.1586 7.8211 71.5815 8.04129C72.0099 8.26147 72.3532 8.53146 72.6114 8.85125C72.8695 9.17104 72.9931 9.55374 72.9821 9.99934C72.9821 10.5079 72.8229 10.9535 72.5043 11.3362C72.1857 11.7136 71.7738 12.002 71.2684 12.2012C70.7686 12.4004 70.2331 12.479 69.6618 12.4371Z" fill="#EFEDE8"/>
<path d="M77.8886 12.5C77.1306 12.5 76.4385 12.3139 75.8124 11.9417C75.1917 11.5695 74.6946 11.0688 74.3211 10.4397C73.9531 9.81062 73.7691 9.11599 73.7691 8.35583C73.7691 7.7844 73.8762 7.24967 74.0904 6.75164C74.3046 6.24836 74.5985 5.80799 74.972 5.43054C75.351 5.04784 75.7904 4.74902 76.2902 4.53408C76.7901 4.31914 77.3228 4.21167 77.8886 4.21167C78.5312 4.21167 79.1189 4.34273 79.6517 4.60485C80.19 4.86173 80.6459 5.2156 81.0194 5.66645C81.3929 6.1173 81.6648 6.63106 81.8351 7.20773C82.0053 7.7844 82.0438 8.38729 81.9504 9.01638H75.9277C76.0046 9.30996 76.1309 9.57471 76.3067 9.81062C76.4825 10.0413 76.7049 10.2274 76.9741 10.3689C77.2432 10.5052 77.548 10.576 77.8886 10.5813C78.2401 10.5865 78.5587 10.5079 78.8443 10.3453C79.1354 10.1776 79.3771 9.95216 79.5693 9.66907L81.6208 10.1252C81.2858 10.8224 80.786 11.3938 80.1213 11.8394C79.4567 12.2798 78.7125 12.5 77.8886 12.5ZM75.8618 7.57733H79.9154C79.8549 7.26278 79.7259 6.97969 79.5281 6.72805C79.3359 6.47117 79.097 6.26671 78.8113 6.11468C78.5257 5.96265 78.2181 5.88663 77.8886 5.88663C77.559 5.88663 77.2542 5.96265 76.9741 6.11468C76.6939 6.26147 76.455 6.4633 76.2573 6.72018C76.065 6.97182 75.9332 7.25754 75.8618 7.57733Z" fill="#EFEDE8"/>
</g>
</symbol><symbol viewBox="0 0 20 18" id="Runner">
<g id="running-stick-figure-svgrepo-com 1">
<g id="Group">
<g id="Group_2">
<path id="Vector" d="M18.5263 5.90673C18.2643 5.59374 17.7975 5.55259 17.4845 5.81359L15.4333 7.53667L14.49 5.19953C14.4564 5.1118 14.4055 5.03816 14.347 4.97318C14.1542 4.5443 13.8196 4.17608 13.3582 3.96272C13.1579 3.87175 12.951 3.82302 12.7441 3.79919C12.6987 3.77536 12.6575 3.74396 12.6055 3.72771L8.99583 2.72159C8.79331 2.66636 8.58971 2.7021 8.42292 2.79957C8.22473 2.86672 8.0547 3.01076 7.97347 3.21978L6.61429 6.71466C6.467 7.0948 6.65544 7.52367 7.03666 7.67313C7.41572 7.82042 7.84567 7.63089 7.99405 7.24967L9.14204 4.29846L10.7861 4.75549C10.746 4.82047 10.7027 4.88112 10.6702 4.95043L8.56263 9.51858C8.53231 9.58573 8.51606 9.65396 8.4944 9.72327L5.93307 14.0174L1.64651 15.4513C1.16132 15.8141 1.05843 16.4975 1.41691 16.9827C1.77755 17.469 2.4631 17.5719 2.94721 17.2134L7.33341 15.7026C7.4677 15.6051 7.56518 15.4773 7.63882 15.3398C7.69405 15.2813 7.75687 15.2347 7.79911 15.1622L9.32615 12.6019L12.0369 14.912L9.13663 18.1805C8.737 18.6311 8.77707 19.3253 9.22976 19.7238C9.68138 20.1256 10.3734 20.0834 10.7752 19.6307L14.3947 15.5531C14.5073 15.4275 14.5744 15.2824 14.6199 15.1308C14.647 15.0484 14.647 14.9629 14.6535 14.8773C14.6535 14.834 14.6697 14.795 14.6665 14.7549C14.6567 14.456 14.5354 14.1658 14.2907 13.9589L11.7965 11.8319C11.9763 11.6608 12.129 11.4572 12.2395 11.2178L13.8553 7.71861L14.373 9.09729C14.3947 9.21967 14.4358 9.33988 14.5224 9.4406C14.6004 9.53374 14.7001 9.59547 14.8062 9.6388C14.817 9.64421 14.83 9.64529 14.843 9.64854C14.9102 9.67237 14.9784 9.69511 15.0488 9.69836C15.1322 9.70594 15.2167 9.69511 15.3022 9.67129C15.3044 9.6702 15.3055 9.6702 15.3055 9.6702C15.3282 9.66479 15.351 9.66912 15.3737 9.65937C15.4939 9.61389 15.586 9.53699 15.665 9.4471L18.6087 6.94859C18.9216 6.68542 18.7895 6.21972 18.5263 5.90673Z" />
<path id="Vector_2" d="M14.8053 4.12628C15.9448 4.12628 16.8685 3.20258 16.8685 2.06314C16.8685 0.923699 15.9448 0 14.8053 0C13.6659 0 12.7422 0.923699 12.7422 2.06314C12.7422 3.20258 13.6659 4.12628 14.8053 4.12628Z" />
</g>
</g>
</g>
</symbol><symbol viewBox="0 0 15.750667 15.750667" id="Search">
<g id="Search">
<path id="Vector" d="M8.25 14.25C11.5637 14.25 14.25 11.5637 14.25 8.25C14.25 4.93629 11.5637 2.25 8.25 2.25C4.93629 2.25 2.25 4.93629 2.25 8.25C2.25 11.5637 4.93629 14.25 8.25 14.25Z" stroke="#EFEDE8" stroke-width="1.5" stroke-linecap="round" stroke-linejoin="round"/>
<path id="Vector_2" d="M15.7508 15.75L12.4883 12.4875" stroke="#EFEDE8" stroke-width="1.5" stroke-linecap="round" stroke-linejoin="round"/>
</g>
</symbol><symbol  viewBox="0 0 23 23"  id="Settings">
<g id="settings" >
<path id="Accent" d="M12 15C13.6569 15 15 13.6569 15 12C15 10.3431 13.6569 9 12 9C10.3431 9 9 10.3431 9 12C9 13.6569 10.3431 15 12 15Z" stroke="#EFEDE8" stroke-opacity="0.3" stroke-width="1.5" stroke-linecap="round" stroke-linejoin="round"/>
<path  id="Icon" d="M18.7273 14.7273C18.6063 15.0015 18.5702 15.3056 18.6236 15.6005C18.6771 15.8954 18.8177 16.1676 19.0273 16.3818L19.0818 16.4364C19.2509 16.6052 19.385 16.8058 19.4765 17.0265C19.568 17.2472 19.6151 17.4838 19.6151 17.7227C19.6151 17.9617 19.568 18.1983 19.4765 18.419C19.385 18.6397 19.2509 18.8402 19.0818 19.0091C18.913 19.1781 18.7124 19.3122 18.4917 19.4037C18.271 19.4952 18.0344 19.5423 17.7955 19.5423C17.5565 19.5423 17.3199 19.4952 17.0992 19.4037C16.8785 19.3122 16.678 19.1781 16.5091 19.0091L16.4545 18.9545C16.2403 18.745 15.9682 18.6044 15.6733 18.5509C15.3784 18.4974 15.0742 18.5335 14.8 18.6545C14.5311 18.7698 14.3018 18.9611 14.1403 19.205C13.9788 19.4489 13.8921 19.7347 13.8909 20.0273V20.1818C13.8909 20.664 13.6994 21.1265 13.3584 21.4675C13.0174 21.8084 12.5549 22 12.0727 22C11.5905 22 11.1281 21.8084 10.7871 21.4675C10.4461 21.1265 10.2545 20.664 10.2545 20.1818V20.1C10.2475 19.7991 10.1501 19.5073 9.97501 19.2625C9.79991 19.0176 9.55521 18.8312 9.27273 18.7273C8.99853 18.6063 8.69437 18.5702 8.39947 18.6236C8.10456 18.6771 7.83244 18.8177 7.61818 19.0273L7.56364 19.0818C7.39478 19.2509 7.19425 19.385 6.97353 19.4765C6.7528 19.568 6.51621 19.6151 6.27727 19.6151C6.03834 19.6151 5.80174 19.568 5.58102 19.4765C5.36029 19.385 5.15977 19.2509 4.99091 19.0818C4.82186 18.913 4.68775 18.7124 4.59626 18.4917C4.50476 18.271 4.45766 18.0344 4.45766 17.7955C4.45766 17.5565 4.50476 17.3199 4.59626 17.0992C4.68775 16.8785 4.82186 16.678 4.99091 16.5091L5.04545 16.4545C5.25503 16.2403 5.39562 15.9682 5.4491 15.6733C5.50257 15.3784 5.46647 15.0742 5.34545 14.8C5.23022 14.5311 5.03887 14.3018 4.79497 14.1403C4.55107 13.9788 4.26526 13.8921 3.97273 13.8909H3.81818C3.33597 13.8909 2.87351 13.6994 2.53253 13.3584C2.19156 13.0174 2 12.5549 2 12.0727C2 11.5905 2.19156 11.1281 2.53253 10.7871C2.87351 10.4461 3.33597 10.2545 3.81818 10.2545H3.9C4.2009 10.2475 4.49273 10.1501 4.73755 9.97501C4.98236 9.79991 5.16883 9.55521 5.27273 9.27273C5.39374 8.99853 5.42984 8.69437 5.37637 8.39947C5.3229 8.10456 5.18231 7.83244 4.97273 7.61818L4.91818 7.56364C4.74913 7.39478 4.61503 7.19425 4.52353 6.97353C4.43203 6.7528 4.38493 6.51621 4.38493 6.27727C4.38493 6.03834 4.43203 5.80174 4.52353 5.58102C4.61503 5.36029 4.74913 5.15977 4.91818 4.99091C5.08704 4.82186 5.28757 4.68775 5.50829 4.59626C5.72901 4.50476 5.96561 4.45766 6.20455 4.45766C6.44348 4.45766 6.68008 4.50476 6.9008 4.59626C7.12153 4.68775 7.32205 4.82186 7.49091 4.99091L7.54546 5.04545C7.75971 5.25503 8.03183 5.39562 8.32674 5.4491C8.62164 5.50257 8.9258 5.46647 9.2 5.34545H9.27273C9.54161 5.23022 9.77093 5.03887 9.93245 4.79497C10.094 4.55107 10.1807 4.26526 10.1818 3.97273V3.81818C10.1818 3.33597 10.3734 2.87351 10.7144 2.53253C11.0553 2.19156 11.5178 2 12 2C12.4822 2 12.9447 2.19156 13.2856 2.53253C13.6266 2.87351 13.8182 3.33597 13.8182 3.81818V3.9C13.8194 4.19253 13.906 4.47834 14.0676 4.72224C14.2291 4.96614 14.4584 5.15749 14.7273 5.27273C15.0015 5.39374 15.3056 5.42984 15.6005 5.37637C15.8954 5.3229 16.1676 5.18231 16.3818 4.97273L16.4364 4.91818C16.6052 4.74913 16.8058 4.61503 17.0265 4.52353C17.2472 4.43203 17.4838 4.38493 17.7227 4.38493C17.9617 4.38493 18.1983 4.43203 18.419 4.52353C18.6397 4.61503 18.8402 4.74913 19.0091 4.91818C19.1781 5.08704 19.3122 5.28757 19.4037 5.50829C19.4952 5.72901 19.5423 5.96561 19.5423 6.20455C19.5423 6.44348 19.4952 6.68008 19.4037 6.9008C19.3122 7.12153 19.1781 7.32205 19.0091 7.49091L18.9545 7.54546C18.745 7.75971 18.6044 8.03183 18.5509 8.32674C18.4974 8.62164 18.5335 8.9258 18.6545 9.2V9.27273C18.7698 9.54161 18.9611 9.77093 19.205 9.93245C19.4489 10.094 19.7347 10.1807 20.0273 10.1818H20.1818C20.664 10.1818 21.1265 10.3734 21.4675 10.7144C21.8084 11.0553 22 11.5178 22 12C22 12.4822 21.8084 12.9447 21.4675 13.2856C21.1265 13.6266 20.664 13.8182 20.1818 13.8182H20.1C19.8075 13.8194 19.5217 13.906 19.2778 14.0676C19.0339 14.2291 18.8425 14.4584 18.7273 14.7273Z" stroke="#EFEDE8" stroke-opacity="0.3" stroke-width="1.5" stroke-linecap="round" stroke-linejoin="round"/>
</g>
</symbol><symbol viewBox="0 0 20 20" fill="none" id="Trash">
<g id="trash-03">
<path id="Accent" d="M7.5 2.5H12.5M8.33333 8.75V12.9167M11.6667 8.75V12.9167"  stroke-width="1.5" stroke-linecap="round" stroke-linejoin="round"/>
<path id="Icon" d="M2.5 5H17.5M15.8333 5L15.2489 13.7661C15.1612 15.0813 15.1174 15.7389 14.8333 16.2375C14.5833 16.6765 14.206 17.0294 13.7514 17.2497C13.235 17.5 12.5759 17.5 11.2578 17.5H8.74221C7.42409 17.5 6.76503 17.5 6.24861 17.2497C5.79396 17.0294 5.41674 16.6765 5.16665 16.2375C4.88259 15.7389 4.83875 15.0813 4.75107 13.7661L4.16667 5"  stroke-width="1.5" stroke-linecap="round" stroke-linejoin="round"/>
</g>
</symbol><symbol viewBox="0 0 36 13" id="Weight">
<path id="Vector" d="M35.0714 5.57143C35.5843 5.57143 36 5.98716 36 6.5C36 7.01284 35.5843 7.42857 35.0714 7.42857H34.4286C33.8763 7.42857 33.4286 7.87629 33.4286 8.42857V10.1429C33.4286 10.6951 32.9809 11.1429 32.4286 11.1429H31.7857C31.2729 11.1429 30.8571 11.5586 30.8571 12.0714C30.8571 12.5843 30.4414 13 29.9286 13H28C27.4477 13 27 12.5523 27 12V8.42857C27 7.87629 26.5523 7.42857 26 7.42857H10C9.44772 7.42857 9 7.87629 9 8.42857V12C9 12.5523 8.55228 13 8 13H6.07143C5.55859 13 5.14286 12.5843 5.14286 12.0714C5.14286 11.5586 4.72712 11.1429 4.21429 11.1429H3.57143C3.01914 11.1429 2.57143 10.6951 2.57143 10.1429V8.42857C2.57143 7.87629 2.12371 7.42857 1.57143 7.42857H0.928572C0.415736 7.42857 0 7.01284 0 6.5C0 5.98716 0.415736 5.57143 0.928572 5.57143H1.57143C2.12371 5.57143 2.57143 5.12371 2.57143 4.57143V2.85714C2.57143 2.30486 3.01914 1.85714 3.57143 1.85714H4.21429C4.72712 1.85714 5.14286 1.44141 5.14286 0.928571C5.14286 0.415736 5.55859 0 6.07143 0H8C8.55228 0 9 0.447715 9 1V4.57143C9 5.12371 9.44772 5.57143 10 5.57143H26C26.5523 5.57143 27 5.12371 27 4.57143V1C27 0.447716 27.4477 0 28 0H29.9286C30.4414 0 30.8571 0.415736 30.8571 0.928571C30.8571 1.44141 31.2729 1.85714 31.7857 1.85714H32.4286C32.9809 1.85714 33.4286 2.30486 33.4286 2.85714V4.57143C33.4286 5.12371 33.8763 5.57143 34.4286 5.57143H35.0714Z" />
</symbol><symbol viewBox="0 0 23.64367 23.680641" id="Сheck_mark">
<g id="check mark">
<path id="Vector 5" d="M8.42353 0.427845L11.4416 1.30053C11.7806 1.39857 12.1404 1.39931 12.4798 1.30269L15.6112 0.411303C16.4564 0.170715 17.3556 0.546915 17.7776 1.31768L19.4127 4.30383C19.5809 4.61093 19.8314 4.86505 20.136 5.03762L22.6787 6.47792C23.4497 6.91468 23.8117 7.8301 23.548 8.6761L22.6688 11.4954C22.5556 11.8584 22.555 12.2472 22.6671 12.6106L23.56 15.5054C23.8177 16.3409 23.4661 17.244 22.7113 17.6852L19.817 19.3772C19.5138 19.5544 19.2663 19.8129 19.1023 20.1235L17.7545 22.6768C17.3456 23.4515 16.4564 23.8417 15.6095 23.6181L12.4446 22.7828C12.1273 22.699 11.7937 22.6997 11.4767 22.7846L8.43415 23.6004C7.5676 23.8328 6.6575 23.4213 6.25958 22.6172L4.91893 19.908C4.74213 19.5508 4.45647 19.2588 4.10311 19.0743L1.34775 17.6356C0.561474 17.225 0.168507 16.3213 0.404481 15.4662L1.21086 12.5444C1.29971 12.2224 1.3013 11.8826 1.21547 11.5599L0.376636 8.40538C0.155154 7.57248 0.52762 6.69555 1.2808 6.27662L4.15375 4.67867C4.47542 4.49975 4.73758 4.23045 4.90779 3.90409L6.23165 1.36568C6.64597 0.571256 7.56282 0.178965 8.42353 0.427845Z" fill="#E6533C"/>
<path id="Vector" d="M12.25 7V17" stroke="#EFEDE8" stroke-width="1.5" stroke-linecap="round" stroke-linejoin="round"/>
<path id="Vector_2" d="M7 12H17" stroke="#EFEDE8" stroke-width="1.5" stroke-linecap="round" stroke-linejoin="round"/>
</g>
</symbol><symbol viewBox="0 0 24 24" id="Close">
<path d="M18 6L6 18M6 6L18 18"  stroke-width="2" stroke-linecap="round" stroke-linejoin="round"/>
</symbol>
<symbol id="Pause" viewBox="0 0 29 32">
<path fill="none" stroke="#efede8" style="stroke: var(--color1, #efede8)" stroke-linejoin="round" stroke-linecap="round" stroke-miterlimit="4" stroke-width="4.16" d="M3.731 28.8v-25.6M25.065 28.8v-25.6"></path>
</symbol>




<symbol id="icon-line" viewBox="0 0 87 32">
			<path fill="none" stroke="#ef8964" style="stroke: var(--color1, #ef8964)" stroke-linejoin="round" stroke-linecap="round" stroke-miterlimit="4" stroke-width="1.7297" d="M60.717 0.865c-20.169 0.292-64.211 3.812-59.502 21.728 4.232 12.649 64.534 9.932 79.413 0.414s-5.555-19.422-34.037-15.916">
			</path>
</symbol>
<symbol id="icon-success" viewBox="0 0 32 32">
<path d="M16 29.333c-7.364 0-13.333-5.969-13.333-13.333s5.969-13.333 13.333-13.333 13.333 5.969 13.333 13.333c0 7.364-5.969 13.333-13.333 13.333zM14.459 21.98l9.427-9.428-1.885-1.885-7.541 7.543-3.772-3.772-1.885 1.885 5.657 5.657z"></path>
</symbol>
<symbol id="icon-eye" viewBox="0 0 32 32">
<path stroke-linejoin="round" stroke-linecap="round" stroke-miterlimit="4" stroke-width="2.88" d="M1.333 16c0 0 5.333-10.667 14.667-10.667s14.667 10.667 14.667 10.667-5.333 10.667-14.667 10.667c-9.333 0-14.667-10.667-14.667-10.667z"></path>
<path stroke-linejoin="round" stroke-linecap="round" stroke-miterlimit="4" stroke-width="2.88" d="M16 20c2.209 0 4-1.791 4-4s-1.791-4-4-4c-2.209 0-4 1.791-4 4s1.791 4 4 4z"></path>
</symbol>
<symbol id="icon-eye-off" viewBox="0 0 32 32">
<path stroke-linejoin="round" stroke-linecap="round" stroke-miterlimit="4" stroke-width="2.88" d="M23.92 23.92c-2.279 1.737-5.055 2.7-7.92 2.747-9.333 0-14.667-10.667-14.667-10.667 1.659-3.091 3.959-5.791 6.747-7.92M13.2 5.653c0.918-0.215 1.857-0.322 2.8-0.32 9.333 0 14.667 10.667 14.667 10.667-0.809 1.514-1.775 2.94-2.88 4.253M18.827 18.827c-0.366 0.393-0.808 0.708-1.299 0.927s-1.020 0.336-1.557 0.346c-0.537 0.009-1.071-0.089-1.569-0.291s-0.95-0.501-1.33-0.88c-0.38-0.38-0.679-0.832-0.88-1.33s-0.3-1.032-0.29-1.569c0.009-0.537 0.127-1.067 0.346-1.558s0.534-0.932 0.927-1.298"></path>
<path stroke-linejoin="round" stroke-linecap="round" stroke-miterlimit="4" stroke-width="2.88" d="M1.333 1.333l29.333 29.333"></path>
</symbol>
<symbol id="icon-green" viewBox="0 0 32 32">
<path fill="#3cbf61" style="fill: var(--color1, #3cbf61)" d="M16 29.333c-7.364 0-13.333-5.969-13.333-13.333s5.969-13.333 13.333-13.333c7.364 0 13.333 5.969 13.333 13.333s-5.969 13.333-13.333 13.333zM14.459 21.98l9.427-9.428-1.885-1.885-7.541 7.543-3.772-3.772-1.885 1.885 5.657 5.657z"></path>
</symbol>

<symbol id="icon-red" viewBox="0 0 32 32">
<path fill="#d80027" style="fill: var(--color1, #d80027)" d="M16 29.333c-7.364 0-13.333-5.969-13.333-13.333s5.969-13.333 13.333-13.333c7.364 0 13.333 5.969 13.333 13.333s-5.969 13.333-13.333 13.333zM14.459 21.98l9.427-9.428-1.885-1.885-7.541 7.543-3.772-3.772-1.885 1.885 5.657 5.657z"></path>
</symbol>

<symbol id="icon-warning" viewBox="0 0 32 32">
<path d="M32 16c0 8.837-7.163 16-16 16s-16-7.163-16-16c0-8.837 7.163-16 16-16s16 7.163 16 16z"></path>
<path  stroke-linejoin="round" stroke-linecap="round" stroke-miterlimit="4" stroke-width="2.6667" d="M16 25.333v0.013M16 20v-13.333"></path>
</symbol>

<symbol id="icon-add-avatar" viewBox="0 0 33 32">
			<path fill="#e6533c" style="fill: var(--color3, #e6533c)" d="M11.238 0.428l4.69 1.356c0.339 0.098 0.699 0.099 1.038 0.002l4.83-1.375c0.845-0.241 1.744 0.136 2.166 0.906l2.506 4.577c0.168 0.307 0.419 0.561 0.723 0.734l3.986 2.258c0.771 0.437 1.133 1.352 0.869 2.198l-1.381 4.428c-0.113 0.363-0.114 0.752-0.002 1.115l1.394 4.521c0.258 0.836-0.094 1.739-0.849 2.18l-4.443 2.597c-0.303 0.177-0.551 0.436-0.715 0.746l-2.114 4.004c-0.409 0.775-1.298 1.165-2.145 0.941l-4.863-1.284c-0.317-0.084-0.651-0.083-0.968 0.002l-4.715 1.264c-0.867 0.232-1.777-0.179-2.175-0.983l-2.106-4.256c-0.177-0.357-0.462-0.649-0.816-0.834l-4.304-2.247c-0.786-0.411-1.179-1.314-0.943-2.169l1.255-4.548c0.089-0.322 0.090-0.662 0.005-0.985l-1.288-4.843c-0.221-0.833 0.151-1.71 0.904-2.129l4.422-2.46c0.322-0.179 0.584-0.448 0.754-0.775l2.090-4.007c0.414-0.794 1.331-1.187 2.192-0.938z">
			</path>
			<path fill="none" stroke="#efede8" style="stroke: var(--color2, #efede8)" stroke-linejoin="round" stroke-linecap="round" stroke-miterlimit="4" stroke-width="2" d="M16.5 10.75v10.5">
			</path>
			<path fill="none" stroke="#efede8" style="stroke: var(--color2, #efede8)" stroke-linejoin="round" stroke-linecap="round" stroke-miterlimit="4" stroke-width="2" d="M11.25 16h10.5">
			</path>
		</symbol>

<symbol id="icon-avatar" viewBox="0 0 32 32">
			<path fill="#efede8" style="fill: var(--color2, #efede8)" opacity="0.1" d="M16 5.333c1.415 0 2.771 0.562 3.771 1.562s1.562 2.357 1.562 3.771-0.562 2.771-1.562 3.771c-1 1-2.357 1.562-3.771 1.562s-2.771-0.562-3.771-1.562c-1-1-1.562-2.357-1.562-3.771s0.562-2.771 1.562-3.771c1-1 2.357-1.562 3.771-1.562zM16 26.667c0 0 10.667 0 10.667-2.667 0-3.2-5.2-6.667-10.667-6.667s-10.667 3.467-10.667 6.667c0 2.667 10.667 2.667 10.667 2.667z">
			</path>
		</symbol>	
			<symbol id="icon-calendar-white" viewBox="0 0 32 32">
			<path fill="none" stroke="#efede8" style="stroke: var(--color2, #efede8)" stroke-linejoin="round" stroke-linecap="round" stroke-miterlimit="4" stroke-width="2.6667" d="M25.333 5.333h-18.667c-1.473 0-2.667 1.194-2.667 2.667v18.667c0 1.473 1.194 2.667 2.667 2.667h18.667c1.473 0 2.667-1.194 2.667-2.667v-18.667c0-1.473-1.194-2.667-2.667-2.667z">
			</path>
			<path fill="none" stroke="#efede8" style="stroke: var(--color2, #efede8)" stroke-linejoin="round" stroke-linecap="round" stroke-miterlimit="4" stroke-width="2.6667" d="M21.333 2.667v5.333">
			</path>
			<path fill="none" stroke="#efede8" style="stroke: var(--color2, #efede8)" stroke-linejoin="round" stroke-linecap="round" stroke-miterlimit="4" stroke-width="2.6667" d="M10.667 2.667v5.333">
			</path>
			<path fill="none" stroke="#efede8" style="stroke: var(--color2, #efede8)" stroke-linejoin="round" stroke-linecap="round" stroke-miterlimit="4" stroke-width="2.6667" d="M4 13.333h24">
			</path>
		</symbol>	
</svg>