<svg xmlns="http://www.w3.org/2000/svg"><symbol viewBox="0 0 17.270666 18.333334" id="bubble">
<g id="vuesax/linear/bubble">
<g id="bubble">
<path id="Vector" d="M12.9957 10.2163C15.3567 10.2163 17.2707 8.30228 17.2707 5.94126C17.2707 3.58025 15.3567 1.66626 12.9957 1.66626C10.6347 1.66626 8.7207 3.58025 8.7207 5.94126C8.7207 8.30228 10.6347 10.2163 12.9957 10.2163Z" fill="#EF8964"/>
<path id="Vector_2" d="M5.29731 16.1994C6.71484 16.1994 7.86399 15.0502 7.86399 13.6327C7.86399 12.2152 6.71484 11.066 5.29731 11.066C3.87978 11.066 2.73065 12.2152 2.73065 13.6327C2.73065 15.0502 3.87978 16.1994 5.29731 16.1994Z" fill="#EF8964"/>
<path id="Vector_3" d="M13.8443 18.3328C15.0225 18.3328 15.9776 17.3777 15.9776 16.1995C15.9776 15.0213 15.0225 14.0662 13.8443 14.0662C12.6661 14.0662 11.7109 15.0213 11.7109 16.1995C11.7109 17.3777 12.6661 18.3328 13.8443 18.3328Z" fill="#EF8964"/>
</g>
</g>
</symbol><symbol viewBox="0 0 17.848 20" id="calories 1">
<g id="calories 1">
<g id="Group">
<path id="Vector" d="M10.0009 13.932C9.40978 14.3819 8.18939 15.4945 8.18939 17.0103C8.18939 18.0111 9.00158 18.8253 9.99994 18.8253C10.9983 18.8253 11.8105 18.0111 11.8105 17.0103C11.8105 15.5747 10.5894 14.4099 10.0009 13.932Z" fill="#EF8964"/>
<path id="Vector_2" d="M14.2434 3.48096C14.0238 3.23264 13.6449 3.2176 13.4057 3.4408L10.6485 6.0142V0.624943C10.6485 0.173811 10.1046 -0.163259 9.69723 0.0831466C9.62012 0.129787 7.78778 1.24869 5.93634 3.28061C3.6852 5.75123 2.15204 8.75939 2.15204 12.133C2.15204 16.4709 5.67262 20 9.99997 20C8.35544 20 7.01755 18.6588 7.01755 17.0103C7.01755 14.3466 9.6038 12.7693 9.71387 12.7034C9.90684 12.5881 10.1484 12.5935 10.3361 12.7171C10.4441 12.7883 12.9824 14.4908 12.9824 17.0103C12.9824 18.6588 11.6445 20 9.99997 20C14.3273 20 17.8479 16.4709 17.8479 12.133C17.8479 8.85744 16.4025 5.92154 14.2434 3.48096Z" fill="#EF8964"/>
</g>
</g>
</symbol><symbol viewBox="0 0 20 17" id="dumbbell">
<path d="M3.25 5H1.75C1.33438 5 1 5.33437 1 5.75V9H0.25C0.1125 9 0 9.1125 0 9.25V10.75C0 10.8875 0.1125 11 0.25 11H1V14.25C1 14.6656 1.33438 15 1.75 15H3.25C3.66563 15 4 14.6656 4 14.25V5.75C4 5.33437 3.66563 5 3.25 5ZM19.75 9H19V5.75C19 5.33437 18.6656 5 18.25 5H16.75C16.3344 5 16 5.33437 16 5.75V14.25C16 14.6656 16.3344 15 16.75 15H18.25C18.6656 15 19 14.6656 19 14.25V11H19.75C19.8875 11 20 10.8875 20 10.75V9.25C20 9.1125 19.8875 9 19.75 9ZM14.25 3H12.75C12.3344 3 12 3.33437 12 3.75V9H8V3.75C8 3.33437 7.66563 3 7.25 3H5.75C5.33437 3 5 3.33437 5 3.75V16.25C5 16.6656 5.33437 17 5.75 17H7.25C7.66563 17 8 16.6656 8 16.25V11H12V16.25C12 16.6656 12.3344 17 12.75 17H14.25C14.6656 17 15 16.6656 15 16.25V3.75C15 3.33437 14.6656 3 14.25 3Z" fill="#EF8964"/>
</symbol><symbol viewBox="0 0 15.833332 17.498945" id="fluent_food-24-filled">
<path d="M15 2.5C15.2041 2.50003 15.4011 2.57496 15.5537 2.7106C15.7062 2.84623 15.8036 3.03312 15.8275 3.23583L15.8334 3.33333V16.6667C15.8331 16.8791 15.7518 17.0834 15.606 17.2378C15.4602 17.3923 15.2609 17.4852 15.0489 17.4976C14.8368 17.5101 14.628 17.4411 14.4652 17.3048C14.3023 17.1685 14.1976 16.9751 14.1725 16.7642L14.1667 16.6667V12.5H13.3334C13.1292 12.5 12.9322 12.425 12.7797 12.2894C12.6272 12.1538 12.5297 11.9669 12.5059 11.7642L12.5 11.6667V6.66667C12.5 4.825 13.75 2.5 15 2.5ZM10 2.5C10.2041 2.50003 10.4011 2.57496 10.5537 2.7106C10.7062 2.84623 10.8036 3.03312 10.8275 3.23583L10.8334 3.33333V7.5C10.8333 8.23906 10.5877 8.95715 10.1352 9.54148C9.68266 10.1258 9.04887 10.5433 8.33335 10.7283V16.6667C8.33312 16.8791 8.25179 17.0834 8.10598 17.2378C7.96017 17.3923 7.76089 17.4852 7.54886 17.4976C7.33682 17.5101 7.12804 17.4411 6.96516 17.3048C6.80228 17.1685 6.69761 16.9751 6.67252 16.7642L6.66669 16.6667V10.7283C5.97956 10.5507 5.36703 10.1585 4.91816 9.60876C4.46929 9.05903 4.2075 8.38043 4.17085 7.67167L4.16669 7.5V3.33333C4.16692 3.12093 4.24825 2.91664 4.39406 2.76219C4.53987 2.60775 4.73915 2.5148 4.95118 2.50236C5.16322 2.48991 5.372 2.5589 5.53488 2.69522C5.69776 2.83155 5.80243 3.02492 5.82752 3.23583L5.83335 3.33333V7.5C5.83336 7.79255 5.91038 8.07995 6.05666 8.33331C6.20294 8.58667 6.41333 8.79706 6.66669 8.94333V3.33333C6.66692 3.12093 6.74825 2.91664 6.89406 2.76219C7.03987 2.60775 7.23915 2.5148 7.45118 2.50236C7.66322 2.48991 7.872 2.5589 8.03488 2.69522C8.19776 2.83155 8.30243 3.02492 8.32752 3.23583L8.33335 3.33333L8.33419 8.94333C8.56674 8.80891 8.76336 8.62027 8.90729 8.39349C9.05123 8.1667 9.13822 7.90848 9.16085 7.64083L9.16669 7.5V3.33333C9.16669 3.11232 9.25449 2.90036 9.41077 2.74408C9.56705 2.5878 9.77901 2.5 10 2.5Z" fill="#EF8964"/>
</symbol><symbol viewBox="0 0 16.834963 17.816992" id="fluent_food-apple-20-filled">
<path d="M12.159 2.97399C12.223 2.9546 12.2825 2.92257 12.3338 2.8798C12.3852 2.83703 12.4275 2.7844 12.4582 2.725C12.4889 2.6656 12.5074 2.60065 12.5125 2.534C12.5177 2.46734 12.5094 2.40032 12.4882 2.33692C12.467 2.27351 12.4333 2.215 12.3891 2.16485C12.3449 2.1147 12.291 2.07392 12.2308 2.04493C12.1706 2.01594 12.1051 1.99933 12.0383 1.99608C11.9716 1.99282 11.9048 2.00299 11.842 2.02599C10.904 2.33799 10.32 3.10799 9.97603 3.93299C9.92984 4.04451 9.88748 4.15757 9.84903 4.27199C9.6617 3.91713 9.42201 3.59249 9.13803 3.30899C8.75366 2.92379 8.29457 2.62129 7.78897 2.42009C7.28337 2.21888 6.74196 2.12322 6.19803 2.13899C5.61803 2.15499 5.15503 2.61899 5.13903 3.19799C5.12326 3.74192 5.21892 4.28333 5.42013 4.78893C5.62134 5.29452 5.92384 5.75362 6.30903 6.13799L6.34003 6.16799C5.50003 6.34995 4.74092 6.7975 4.17505 7.44442C3.60917 8.09133 3.2666 8.90324 3.19803 9.75999L3.19203 9.83399C3.06001 11.4812 3.41099 13.1311 4.20203 14.582L4.56203 15.24C4.57203 15.257 4.58203 15.274 4.59403 15.29L5.59403 16.692C5.82067 17.0094 6.11375 17.2736 6.45287 17.4663C6.79198 17.6589 7.169 17.7754 7.55769 17.8076C7.94638 17.8397 8.33741 17.7868 8.70359 17.6525C9.06976 17.5183 9.40229 17.3058 9.67803 17.03C9.72038 16.9876 9.77065 16.954 9.82599 16.9311C9.88132 16.9082 9.94063 16.8964 10.0005 16.8964C10.0604 16.8964 10.1197 16.9082 10.1751 16.9311C10.2304 16.954 10.2807 16.9876 10.323 17.03C10.5988 17.3058 10.9313 17.5183 11.2975 17.6525C11.6636 17.7868 12.0547 17.8397 12.4434 17.8076C12.8321 17.7754 13.2091 17.6589 13.5482 17.4663C13.8873 17.2736 14.1804 17.0094 14.407 16.692L15.407 15.291C15.4187 15.2746 15.4294 15.2576 15.439 15.24L15.798 14.582C16.5891 13.1311 16.94 11.4812 16.808 9.83399L16.803 9.75999C16.7588 9.20777 16.6003 8.67077 16.3376 8.18301C16.075 7.69525 15.7139 7.26737 15.2772 6.92648C14.8405 6.58559 14.3377 6.33913 13.8008 6.20271C13.2639 6.06629 12.7045 6.04289 12.158 6.13399L10.501 6.40999C10.511 5.72899 10.631 4.96299 10.9 4.31699C11.18 3.64199 11.596 3.16199 12.158 2.97399H12.159ZM6.90903 8.97399C6.75551 9.02253 6.61311 9.10098 6.49005 9.20481C6.36699 9.30865 6.26571 9.43582 6.19203 9.57899C6.00703 9.92699 5.88003 10.501 5.99703 11.438C6.01015 11.5679 5.97195 11.6978 5.89058 11.7999C5.80921 11.902 5.69113 11.9682 5.56158 11.9844C5.43203 12.0006 5.30128 11.9655 5.19728 11.8865C5.09329 11.8076 5.02429 11.6911 5.00503 11.562C4.87203 10.498 4.99503 9.69699 5.31003 9.10799C5.63003 8.50799 6.11703 8.18399 6.59303 8.02499C6.65534 8.00424 6.72113 7.99597 6.78664 8.00064C6.85215 8.00532 6.9161 8.02285 6.97483 8.05224C7.03356 8.08163 7.08593 8.1223 7.12895 8.17193C7.17196 8.22156 7.20478 8.27918 7.22553 8.34149C7.24628 8.4038 7.25455 8.46959 7.24988 8.5351C7.2452 8.60061 7.22766 8.66455 7.19828 8.72329C7.16889 8.78202 7.12821 8.83439 7.07859 8.8774C7.02896 8.92042 6.97134 8.95324 6.90903 8.97399Z" fill="#EF8964"/>
</symbol><symbol viewBox="0 0 15.750667 16.5" id="hover">
<path d="M14.25 3H3.75C2.92157 3 2.25 3.67157 2.25 4.5V15C2.25 15.8284 2.92157 16.5 3.75 16.5H14.25C15.0784 16.5 15.75 15.8284 15.75 15V4.5C15.75 3.67157 15.0784 3 14.25 3Z" stroke="#EF8964" stroke-width="1.5" stroke-linecap="round" stroke-linejoin="round"/>
<path d="M12 1.5V4.5" stroke="#EF8964" stroke-width="1.5" stroke-linecap="round" stroke-linejoin="round"/>
<path d="M6 1.5V4.5" stroke="#EF8964" stroke-width="1.5" stroke-linecap="round" stroke-linejoin="round"/>
<path d="M2.25 7.5H15.75" stroke="#EF8964" stroke-width="1.5" stroke-linecap="round" stroke-linejoin="round"/>
</symbol><symbol viewBox="0 0 36 13" id="Icon-Logo">
<path id="Vector" d="M35.0714 5.57143C35.5843 5.57143 36 5.98716 36 6.5C36 7.01284 35.5843 7.42857 35.0714 7.42857H34.4286C33.8763 7.42857 33.4286 7.87629 33.4286 8.42857V10.1429C33.4286 10.6951 32.9809 11.1429 32.4286 11.1429H31.7857C31.2729 11.1429 30.8571 11.5586 30.8571 12.0714C30.8571 12.5843 30.4414 13 29.9286 13H28C27.4477 13 27 12.5523 27 12V8.42857C27 7.87629 26.5523 7.42857 26 7.42857H10C9.44772 7.42857 9 7.87629 9 8.42857V12C9 12.5523 8.55228 13 8 13H6.07143C5.55859 13 5.14286 12.5843 5.14286 12.0714C5.14286 11.5586 4.72712 11.1429 4.21429 11.1429H3.57143C3.01914 11.1429 2.57143 10.6951 2.57143 10.1429V8.42857C2.57143 7.87629 2.12371 7.42857 1.57143 7.42857H0.928572C0.415736 7.42857 0 7.01284 0 6.5C0 5.98716 0.415736 5.57143 0.928572 5.57143H1.57143C2.12371 5.57143 2.57143 5.12371 2.57143 4.57143V2.85714C2.57143 2.30486 3.01914 1.85714 3.57143 1.85714H4.21429C4.72712 1.85714 5.14286 1.44141 5.14286 0.928571C5.14286 0.415736 5.55859 0 6.07143 0H8C8.55228 0 9 0.447715 9 1V4.57143C9 5.12371 9.44772 5.57143 10 5.57143H26C26.5523 5.57143 27 5.12371 27 4.57143V1C27 0.447716 27.4477 0 28 0H29.9286C30.4414 0 30.8571 0.415736 30.8571 0.928571C30.8571 1.44141 31.2729 1.85714 31.7857 1.85714H32.4286C32.9809 1.85714 33.4286 2.30486 33.4286 2.85714V4.57143C33.4286 5.12371 33.8763 5.57143 34.4286 5.57143H35.0714Z" fill="#E6533C"/>
</symbol><symbol viewBox="0 0 17.5 17.5" id="log-out">
<g id="log-out-01">
<path id="Accent" d="M7.5 2.5H6.5C5.09987 2.5 4.3998 2.5 3.86502 2.77248C3.39462 3.01217 3.01217 3.39462 2.77248 3.86502C2.5 4.3998 2.5 5.09987 2.5 6.5V13.5C2.5 14.9001 2.5 15.6002 2.77248 16.135C3.01217 16.6054 3.39462 16.9878 3.86502 17.2275C4.3998 17.5 5.09987 17.5 6.5 17.5H7.5" stroke="#EFEDE8" stroke-width="1.5" stroke-linecap="round" stroke-linejoin="round"/>
<path id="Icon" d="M13.3333 14.1666L17.5 9.99998M17.5 9.99998L13.3333 5.83331M17.5 9.99998H7.5" stroke="#EFEDE8" stroke-width="1.5" stroke-linecap="round" stroke-linejoin="round"/>
</g>
</symbol><symbol viewBox="0 0 21 18" id="menu-02">
<g id="menu-02">
<path id="Icon" d="M3 12H15M3 6H21M3 18H21" stroke="#E6533C" stroke-width="2" stroke-linecap="round" stroke-linejoin="round"/>
</g>
</symbol><symbol viewBox="0 0 28 28" id="pause-square">
<g id="pause-square">
<path id="Accent" d="M4 10.4C4 8.15979 4 7.03969 4.43597 6.18404C4.81947 5.43139 5.43139 4.81947 6.18404 4.43597C7.03969 4 8.15979 4 10.4 4H21.6C23.8402 4 24.9603 4 25.816 4.43597C26.5686 4.81947 27.1805 5.43139 27.564 6.18404C28 7.03969 28 8.15979 28 10.4V21.6C28 23.8402 28 24.9603 27.564 25.816C27.1805 26.5686 26.5686 27.1805 25.816 27.564C24.9603 28 23.8402 28 21.6 28H10.4C8.15979 28 7.03969 28 6.18404 27.564C5.43139 27.1805 4.81947 26.5686 4.43597 25.816C4 24.9603 4 23.8402 4 21.6V10.4Z" fill="#E6533C" stroke="#E6533C" stroke-linecap="round" stroke-linejoin="round"/>
<path id="Icon" d="M12.6663 20V12M19.333 20V12" stroke="#EFEDE8" stroke-width="1.3" stroke-linecap="round" stroke-linejoin="round"/>
</g>
</symbol><symbol viewBox="0 0 11.082667 12.250667" id="play">
<g id="play">
<path id="Vector" d="M2.91667 1.75L11.0833 7L2.91667 12.25V1.75Z" fill="#EFEDE8" stroke="#EFEDE8" stroke-width="1.3" stroke-linecap="round" stroke-linejoin="round"/>
</g>
</symbol><symbol viewBox="0 0 82.00016 12.5" id="PowerPulse">
<g id="PowerPulse">
<path d="M0 12.2955V1.28637H4.11949C4.74565 1.28637 5.31139 1.43578 5.81672 1.7346C6.32753 2.03342 6.73124 2.43447 7.02785 2.93775C7.32445 3.44102 7.47275 3.9941 7.47275 4.59699C7.47275 5.2156 7.31896 5.77654 7.01137 6.27982C6.70927 6.77785 6.30282 7.17628 5.792 7.4751C5.28118 7.76868 4.72368 7.91547 4.11949 7.91547H2.01031V12.2955H0ZM2.01031 5.99672H3.90528C4.19089 5.99672 4.45179 5.92857 4.68798 5.79227C4.92416 5.65596 5.11091 5.47248 5.24823 5.24181C5.39104 5.01114 5.46244 4.75426 5.46244 4.47117C5.46244 4.18283 5.39104 3.92333 5.24823 3.69266C5.11091 3.46199 4.92416 3.27851 4.68798 3.1422C4.45179 3.0059 4.19089 2.93775 3.90528 2.93775H2.01031V5.99672Z" fill="#EFEDE8"/>
<path d="M12.0411 12.5C11.2832 12.5 10.5911 12.3139 9.96491 11.9417C9.34424 11.5695 8.84716 11.0714 8.47366 10.4476C8.10565 9.81848 7.92165 9.12385 7.92165 8.3637C7.92165 7.78703 8.02875 7.24967 8.24297 6.75164C8.45718 6.24836 8.75104 5.80799 9.12454 5.43054C9.50353 5.04784 9.94294 4.74902 10.4428 4.53408C10.9426 4.31914 11.4754 4.21167 12.0411 4.21167C12.7991 4.21167 13.4884 4.39777 14.1091 4.76999C14.7353 5.1422 15.2324 5.64286 15.6004 6.27195C15.9739 6.90105 16.1606 7.5983 16.1606 8.3637C16.1606 8.93512 16.0535 9.46986 15.8393 9.96789C15.6251 10.4659 15.3285 10.9063 14.9495 11.289C14.576 11.6664 14.1393 11.9626 13.6395 12.1776C13.1452 12.3925 12.6124 12.5 12.0411 12.5ZM12.0411 10.5813C12.4421 10.5813 12.8019 10.479 13.1204 10.2746C13.439 10.0701 13.6889 9.80013 13.8702 9.46461C14.0569 9.1291 14.1503 8.76212 14.1503 8.3637C14.1503 7.95478 14.0542 7.58257 13.8619 7.24705C13.6752 6.90629 13.4198 6.6363 13.0957 6.43709C12.7772 6.23263 12.4256 6.13041 12.0411 6.13041C11.6457 6.13041 11.2886 6.23263 10.9701 6.43709C10.6515 6.64155 10.3988 6.91416 10.2121 7.25492C10.0253 7.59568 9.93196 7.96527 9.93196 8.3637C9.93196 8.77785 10.0281 9.15269 10.2203 9.4882C10.4126 9.82372 10.668 10.0911 10.9865 10.2903C11.3106 10.4843 11.6621 10.5813 12.0411 10.5813Z" fill="#EFEDE8"/>
<path d="M21.3086 12.2955H19.3147L16.5629 4.43185H18.532L20.3199 9.51966L22.0995 4.43185H24.0851L25.8647 9.51966L27.6526 4.43185H29.6217L26.8699 12.2955H24.876L23.0882 7.18414L21.3086 12.2955Z" fill="#EFEDE8"/>
<path d="M34.1512 12.5C33.3932 12.5 32.7011 12.3139 32.075 11.9417C31.4543 11.5695 30.9572 11.0688 30.5837 10.4397C30.2157 9.81062 30.0317 9.11599 30.0317 8.35583C30.0317 7.7844 30.1388 7.24967 30.353 6.75164C30.5672 6.24836 30.8611 5.80799 31.2346 5.43054C31.6136 5.04784 32.053 4.74902 32.5528 4.53408C33.0527 4.31914 33.5855 4.21167 34.1512 4.21167C34.7938 4.21167 35.3816 4.34273 35.9143 4.60485C36.4526 4.86173 36.9085 5.2156 37.282 5.66645C37.6555 6.1173 37.9274 6.63106 38.0977 7.20773C38.2679 7.7844 38.3064 8.38729 38.213 9.01638H32.1903C32.2672 9.30996 32.3936 9.57471 32.5693 9.81062C32.7451 10.0413 32.9675 10.2274 33.2367 10.3689C33.5058 10.5052 33.8107 10.576 34.1512 10.5813C34.5027 10.5865 34.8213 10.5079 35.1069 10.3453C35.398 10.1776 35.6397 9.95216 35.832 9.66907L37.8835 10.1252C37.5484 10.8224 37.0486 11.3938 36.384 11.8394C35.7194 12.2798 34.9751 12.5 34.1512 12.5ZM32.1244 7.57733H36.178C36.1176 7.26278 35.9885 6.97969 35.7908 6.72805C35.5985 6.47117 35.3596 6.26671 35.074 6.11468C34.7883 5.96265 34.4808 5.88663 34.1512 5.88663C33.8216 5.88663 33.5168 5.96265 33.2367 6.11468C32.9566 6.26147 32.7176 6.4633 32.5199 6.72018C32.3276 6.97182 32.1958 7.25754 32.1244 7.57733Z" fill="#EFEDE8"/>
<path d="M39.5618 12.2955L39.5535 4.43185H41.5638L41.5721 5.13172C41.8522 4.84862 42.1872 4.62582 42.5772 4.4633C42.9672 4.29554 43.3874 4.21167 43.8378 4.21167C44.1399 4.21167 44.442 4.2536 44.7441 4.33748L43.9531 6.27195C43.7444 6.19332 43.5357 6.154 43.327 6.154C43.0029 6.154 42.7063 6.23001 42.4372 6.38204C42.1735 6.52883 41.9621 6.73067 41.8028 6.98755C41.649 7.23919 41.5721 7.51966 41.5721 7.82896V12.2955H39.5618Z" fill="#EFEDE8"/>
<path d="M45.6684 12.2955V1.28637H49.7879C50.414 1.28637 50.9798 1.43578 51.4851 1.7346C51.9959 2.03342 52.3996 2.43447 52.6962 2.93775C52.9928 3.44102 53.1411 3.9941 53.1411 4.59699C53.1411 5.2156 52.9873 5.77654 52.6798 6.27982C52.3777 6.77785 51.9712 7.17628 51.4604 7.4751C50.9496 7.76868 50.3921 7.91547 49.7879 7.91547H47.6787V12.2955H45.6684ZM47.6787 5.99672H49.5737C49.8593 5.99672 50.1202 5.92857 50.3564 5.79227C50.5926 5.65596 50.7793 5.47248 50.9166 5.24181C51.0594 5.01114 51.1308 4.75426 51.1308 4.47117C51.1308 4.18283 51.0594 3.92333 50.9166 3.69266C50.7793 3.46199 50.5926 3.27851 50.3564 3.1422C50.1202 3.0059 49.8593 2.93775 49.5737 2.93775H47.6787V5.99672Z" fill="#EFEDE8"/>
<path d="M53.9962 9.38598V4.43185H56.0065V8.8827C56.0065 9.19201 56.0861 9.4751 56.2454 9.73198C56.4047 9.98362 56.6162 10.1855 56.8798 10.3375C57.149 10.4843 57.4428 10.5577 57.7614 10.5577C58.091 10.5577 58.3876 10.4843 58.6512 10.3375C58.9149 10.1855 59.1263 9.98362 59.2856 9.73198C59.4449 9.4751 59.5246 9.19201 59.5246 8.8827V4.43185H61.5349L61.5431 12.2955H59.5328L59.5246 11.5799C59.2389 11.863 58.9011 12.0885 58.5112 12.2562C58.1212 12.4187 57.7037 12.5 57.2588 12.5C56.6601 12.5 56.1136 12.3611 55.6193 12.0832C55.1249 11.8001 54.7295 11.4253 54.4329 10.9587C54.1418 10.4869 53.9962 9.96265 53.9962 9.38598Z" fill="#EFEDE8"/>
<path d="M63.2406 12.2955V0.5H65.2509V12.2955H63.2406Z" fill="#EFEDE8"/>
<path d="M69.6618 12.4371C69.2334 12.4109 68.8187 12.3296 68.4177 12.1933C68.0223 12.0518 67.6708 11.8604 67.3632 11.6193C67.0556 11.3781 66.8194 11.0898 66.6546 10.7543L68.3518 10.0623C68.4177 10.1671 68.5249 10.2798 68.6732 10.4004C68.8215 10.5157 68.9972 10.6127 69.2005 10.6913C69.4092 10.77 69.6371 10.8093 69.8843 10.8093C70.093 10.8093 70.2907 10.7831 70.4775 10.7307C70.6697 10.673 70.8235 10.5865 70.9389 10.4712C71.0597 10.3558 71.1201 10.2064 71.1201 10.0229C71.1201 9.82897 71.0487 9.67955 70.9059 9.57471C70.7686 9.46461 70.5928 9.38336 70.3786 9.33093C70.1699 9.27326 69.9667 9.22084 69.7689 9.17366C69.2471 9.07405 68.761 8.9194 68.3106 8.7097C67.8657 8.5 67.506 8.23001 67.2313 7.89974C66.9622 7.56422 66.8276 7.16055 66.8276 6.68873C66.8276 6.16972 66.9704 5.72149 67.2561 5.34404C67.5472 4.96658 67.9234 4.67562 68.3848 4.47117C68.8517 4.26671 69.3542 4.16448 69.8925 4.16448C70.5462 4.16448 71.1449 4.29554 71.6886 4.55767C72.2379 4.81455 72.6718 5.1789 72.9904 5.65072L71.4003 6.54718C71.3234 6.42136 71.2163 6.30603 71.0789 6.20118C70.9416 6.09109 70.7851 6.00197 70.6093 5.93381C70.4336 5.86042 70.2495 5.81848 70.0573 5.808C69.8101 5.79751 69.5849 5.81848 69.3817 5.8709C69.1785 5.92333 69.0137 6.01245 68.8874 6.13827C68.7665 6.26409 68.7061 6.43185 68.7061 6.64155C68.7061 6.84076 68.7885 6.99017 68.9533 7.08978C69.1181 7.18414 69.3158 7.25754 69.5465 7.30996C69.7827 7.36239 70.0079 7.42005 70.2221 7.48296C70.7054 7.63499 71.1586 7.8211 71.5815 8.04129C72.0099 8.26147 72.3532 8.53146 72.6114 8.85125C72.8695 9.17104 72.9931 9.55374 72.9821 9.99934C72.9821 10.5079 72.8229 10.9535 72.5043 11.3362C72.1857 11.7136 71.7738 12.002 71.2684 12.2012C70.7686 12.4004 70.2331 12.479 69.6618 12.4371Z" fill="#EFEDE8"/>
<path d="M77.8886 12.5C77.1306 12.5 76.4385 12.3139 75.8124 11.9417C75.1917 11.5695 74.6946 11.0688 74.3211 10.4397C73.9531 9.81062 73.7691 9.11599 73.7691 8.35583C73.7691 7.7844 73.8762 7.24967 74.0904 6.75164C74.3046 6.24836 74.5985 5.80799 74.972 5.43054C75.351 5.04784 75.7904 4.74902 76.2902 4.53408C76.7901 4.31914 77.3228 4.21167 77.8886 4.21167C78.5312 4.21167 79.1189 4.34273 79.6517 4.60485C80.19 4.86173 80.6459 5.2156 81.0194 5.66645C81.3929 6.1173 81.6648 6.63106 81.8351 7.20773C82.0053 7.7844 82.0438 8.38729 81.9504 9.01638H75.9277C76.0046 9.30996 76.1309 9.57471 76.3067 9.81062C76.4825 10.0413 76.7049 10.2274 76.9741 10.3689C77.2432 10.5052 77.548 10.576 77.8886 10.5813C78.2401 10.5865 78.5587 10.5079 78.8443 10.3453C79.1354 10.1776 79.3771 9.95216 79.5693 9.66907L81.6208 10.1252C81.2858 10.8224 80.786 11.3938 80.1213 11.8394C79.4567 12.2798 78.7125 12.5 77.8886 12.5ZM75.8618 7.57733H79.9154C79.8549 7.26278 79.7259 6.97969 79.5281 6.72805C79.3359 6.47117 79.097 6.26671 78.8113 6.11468C78.5257 5.96265 78.2181 5.88663 77.8886 5.88663C77.559 5.88663 77.2542 5.96265 76.9741 6.11468C76.6939 6.26147 76.455 6.4633 76.2573 6.72018C76.065 6.97182 75.9332 7.25754 75.8618 7.57733Z" fill="#EFEDE8"/>
</g>
</symbol><symbol viewBox="0 0 18.793333 19.999674" id="running-stick-figure-svgrepo-com 1">
<g id="running-stick-figure-svgrepo-com 1">
<g id="Group">
<g id="Group_2">
<path id="Vector" d="M18.5293 5.90673C18.2672 5.59374 17.8004 5.55259 17.4874 5.81359L15.4362 7.53667L14.4929 5.19953C14.4593 5.1118 14.4084 5.03816 14.3499 4.97318C14.1572 4.5443 13.8225 4.17608 13.3611 3.96272C13.1608 3.87175 12.9539 3.82302 12.7471 3.79919C12.7016 3.77536 12.6604 3.74396 12.6084 3.72771L8.99876 2.72159C8.79624 2.66636 8.59264 2.7021 8.42585 2.79957C8.22766 2.86672 8.05763 3.01076 7.9764 3.21978L6.61722 6.71466C6.46993 7.0948 6.65837 7.52367 7.03959 7.67313C7.41865 7.82042 7.8486 7.63089 7.99698 7.24967L9.14497 4.29846L10.789 4.75549C10.7489 4.82047 10.7056 4.88112 10.6731 4.95043L8.56556 9.51858C8.53523 9.58573 8.51899 9.65396 8.49733 9.72327L5.936 14.0174L1.64944 15.4513C1.16425 15.8141 1.06136 16.4975 1.41984 16.9827C1.78048 17.469 2.46603 17.5719 2.95014 17.2134L7.33634 15.7026C7.47063 15.6051 7.5681 15.4773 7.64175 15.3398C7.69698 15.2813 7.7598 15.2347 7.80204 15.1622L9.32908 12.6019L12.0399 14.912L9.13956 18.1805C8.73992 18.6311 8.78 19.3253 9.23269 19.7238C9.68431 20.1256 10.3764 20.0834 10.7782 19.6307L14.3976 15.5531C14.5102 15.4275 14.5774 15.2824 14.6229 15.1308C14.6499 15.0484 14.6499 14.9629 14.6564 14.8773C14.6564 14.834 14.6727 14.795 14.6694 14.7549C14.6597 14.456 14.5384 14.1658 14.2936 13.9589L11.7994 11.8319C11.9792 11.6608 12.1319 11.4572 12.2424 11.2178L13.8582 7.71861L14.3759 9.09729C14.3976 9.21967 14.4387 9.33988 14.5254 9.4406C14.6034 9.53374 14.703 9.59547 14.8091 9.6388C14.82 9.64421 14.833 9.64529 14.846 9.64854C14.9131 9.67237 14.9813 9.69511 15.0517 9.69836C15.1351 9.70594 15.2196 9.69511 15.3051 9.67129C15.3073 9.6702 15.3084 9.6702 15.3084 9.6702C15.3311 9.66479 15.3539 9.66912 15.3766 9.65937C15.4968 9.61389 15.5889 9.53699 15.668 9.4471L18.6116 6.94859C18.9246 6.68542 18.7924 6.21972 18.5293 5.90673Z" fill="#EF8964"/>
<path id="Vector_2" d="M14.8059 4.12628C15.9453 4.12628 16.869 3.20258 16.869 2.06314C16.869 0.923699 15.9453 0 14.8059 0C13.6664 0 12.7427 0.923699 12.7427 2.06314C12.7427 3.20258 13.6664 4.12628 14.8059 4.12628Z" fill="#EF8964"/>
</g>
</g>
</g>
</symbol><symbol viewBox="0 0 25.666666 25.666666" id="settings-01">
<g id="settings-01">
<path id="Accent" d="M14 17.5C15.933 17.5 17.5 15.933 17.5 14C17.5 12.067 15.933 10.5 14 10.5C12.067 10.5 10.5 12.067 10.5 14C10.5 15.933 12.067 17.5 14 17.5Z" stroke="#EFEDE8" stroke-opacity="0.3" stroke-width="2" stroke-linecap="round" stroke-linejoin="round"/>
<path id="Icon" d="M21.8482 17.1818C21.707 17.5017 21.6649 17.8565 21.7272 18.2006C21.7896 18.5447 21.9537 18.8621 22.1982 19.1121L22.2618 19.1757C22.459 19.3727 22.6155 19.6067 22.7222 19.8642C22.829 20.1217 22.8839 20.3977 22.8839 20.6765C22.8839 20.9553 22.829 21.2313 22.7222 21.4888C22.6155 21.7463 22.459 21.9802 22.2618 22.1773C22.0648 22.3745 21.8308 22.5309 21.5733 22.6377C21.3158 22.7444 21.0398 22.7994 20.761 22.7994C20.4823 22.7994 20.2063 22.7444 19.9487 22.6377C19.6912 22.5309 19.4573 22.3745 19.2603 22.1773L19.1966 22.1136C18.9467 21.8691 18.6292 21.7051 18.2851 21.6427C17.9411 21.5803 17.5862 21.6224 17.2663 21.7636C16.9526 21.8981 16.6851 22.1213 16.4967 22.4059C16.3082 22.6904 16.2071 23.0238 16.2057 23.3651V23.5454C16.2057 24.108 15.9823 24.6476 15.5844 25.0454C15.1866 25.4432 14.6471 25.6666 14.0845 25.6666C13.5219 25.6666 12.9824 25.4432 12.5846 25.0454C12.1868 24.6476 11.9633 24.108 11.9633 23.5454V23.45C11.9551 23.0989 11.8415 22.7585 11.6372 22.4728C11.4329 22.1872 11.1474 21.9697 10.8179 21.8485C10.498 21.7073 10.1431 21.6652 9.79905 21.7276C9.455 21.7899 9.13752 21.954 8.88755 22.1985L8.82392 22.2621C8.62691 22.4593 8.39297 22.6158 8.13546 22.7225C7.87795 22.8293 7.60192 22.8842 7.32316 22.8842C7.0444 22.8842 6.76837 22.8293 6.51086 22.7225C6.25335 22.6158 6.01941 22.4593 5.8224 22.2621C5.62518 22.0651 5.46872 21.8312 5.36197 21.5736C5.25522 21.3161 5.20028 21.0401 5.20028 20.7613C5.20028 20.4826 5.25522 20.2066 5.36197 19.949C5.46872 19.6915 5.62518 19.4576 5.8224 19.2606L5.88604 19.197C6.13055 18.947 6.29457 18.6295 6.35695 18.2855C6.41934 17.9414 6.37722 17.5865 6.23604 17.2666C6.10159 16.953 5.87835 16.6854 5.5938 16.497C5.30925 16.3085 4.97581 16.2074 4.63452 16.206H4.45422C3.89164 16.206 3.3521 15.9826 2.9543 15.5848C2.55649 15.1869 2.33301 14.6474 2.33301 14.0848C2.33301 13.5222 2.55649 12.9827 2.9543 12.5849C3.3521 12.1871 3.89164 11.9636 4.45422 11.9636H4.54967C4.90073 11.9554 5.24119 11.8418 5.52681 11.6375C5.81243 11.4332 6.02998 11.1477 6.15119 10.8182C6.29237 10.4983 6.33449 10.1434 6.2721 9.79936C6.20972 9.4553 6.0457 9.13782 5.80119 8.88786L5.73755 8.82422C5.54033 8.62722 5.38387 8.39327 5.27712 8.13576C5.17038 7.87825 5.11543 7.60222 5.11543 7.32346C5.11543 7.0447 5.17038 6.76868 5.27712 6.51117C5.38387 6.25366 5.54033 6.01971 5.73755 5.82271C5.93456 5.62548 6.1685 5.46903 6.42601 5.36228C6.68352 5.25553 6.95955 5.20058 7.23831 5.20058C7.51707 5.20058 7.7931 5.25553 8.05061 5.36228C8.30812 5.46903 8.54207 5.62548 8.73907 5.82271L8.80271 5.88634C9.05267 6.13085 9.37015 6.29487 9.7142 6.35726C10.0583 6.41964 10.4131 6.37753 10.733 6.23634H10.8179C11.1316 6.1019 11.3991 5.87866 11.5875 5.59411C11.776 5.30956 11.8771 4.97612 11.8785 4.63483V4.45453C11.8785 3.89194 12.1019 3.35241 12.4998 2.9546C12.8976 2.5568 13.4371 2.33331 13.9997 2.33331C14.5623 2.33331 15.1018 2.5568 15.4996 2.9546C15.8974 3.35241 16.1209 3.89194 16.1209 4.45453V4.54998C16.1222 4.89127 16.2234 5.22471 16.4118 5.50926C16.6003 5.79381 16.8678 6.01705 17.1815 6.1515C17.5014 6.29268 17.8562 6.33479 18.2003 6.27241C18.5444 6.21003 18.8618 6.046 19.1118 5.8015L19.1754 5.73786C19.3724 5.54064 19.6064 5.38418 19.8639 5.27743C20.1214 5.17068 20.3974 5.11574 20.6762 5.11574C20.955 5.11574 21.231 5.17068 21.4885 5.27743C21.746 5.38418 21.9799 5.54064 22.1769 5.73786C22.3742 5.93486 22.5306 6.16881 22.6374 6.42632C22.7441 6.68383 22.7991 6.95986 22.7991 7.23862C22.7991 7.51738 22.7441 7.7934 22.6374 8.05091C22.5306 8.30843 22.3742 8.54237 22.1769 8.73937L22.1133 8.80301C21.8688 9.05297 21.7048 9.37045 21.6424 9.71451C21.58 10.0586 21.6221 10.4134 21.7633 10.7333V10.8182C21.8978 11.1319 22.121 11.3994 22.4055 11.5878C22.6901 11.7763 23.0235 11.8774 23.3648 11.8788H23.5451C24.1077 11.8788 24.6472 12.1023 25.0451 12.5001C25.4429 12.8979 25.6663 13.4374 25.6663 14C25.6663 14.5626 25.4429 15.1021 25.0451 15.4999C24.6472 15.8977 24.1077 16.1212 23.5451 16.1212H23.4497C23.1084 16.1226 22.7749 16.2237 22.4904 16.4121C22.2058 16.6006 21.9826 16.8681 21.8482 17.1818Z" stroke="#EFEDE8" stroke-opacity="0.3" stroke-width="2" stroke-linecap="round" stroke-linejoin="round"/>
</g>
</symbol><symbol viewBox="0 0 18 18" id="x">
<path d="M18 6L6 18M6 6L18 18" stroke="#EFEDE8" stroke-width="2" stroke-linecap="round" stroke-linejoin="round"/>
</symbol></svg>