<svg width="100" height="17" viewBox="0 0 100 17" fill="none" xmlns="http://www.w3.org/2000/svg">
<g id="PowerPulse">
<path d="M0 15.87V1.87H5C5.76 1.87 6.44667 2.06 7.06 2.44C7.68 2.82 8.17 3.33 8.53 3.97C8.89 4.61 9.07 5.31333 9.07 6.08C9.07 6.86666 8.88333 7.58 8.51 8.22C8.14333 8.85333 7.65 9.36 7.03 9.74C6.41 10.1133 5.73333 10.3 5 10.3H2.44V15.87H0ZM2.44 7.86H4.74C5.08667 7.86 5.40333 7.77333 5.69 7.6C5.97667 7.42666 6.20333 7.19333 6.37 6.9C6.54333 6.60666 6.63 6.28 6.63 5.92C6.63 5.55333 6.54333 5.22333 6.37 4.93C6.20333 4.63666 5.97667 4.40333 5.69 4.23C5.40333 4.05666 5.08667 3.97 4.74 3.97H2.44V7.86Z" fill="#EFEDE8"/>
<path d="M14.6148 16.13C13.6948 16.13 12.8548 15.8933 12.0948 15.42C11.3415 14.9467 10.7382 14.3133 10.2848 13.52C9.83818 12.72 9.61484 11.8367 9.61484 10.87C9.61484 10.1367 9.74484 9.45333 10.0048 8.82C10.2648 8.18 10.6215 7.62 11.0748 7.14C11.5348 6.65333 12.0682 6.27333 12.6748 6C13.2815 5.72666 13.9282 5.59 14.6148 5.59C15.5348 5.59 16.3715 5.82666 17.1248 6.3C17.8848 6.77333 18.4882 7.41 18.9348 8.21C19.3882 9.01 19.6148 9.89666 19.6148 10.87C19.6148 11.5967 19.4848 12.2767 19.2248 12.91C18.9648 13.5433 18.6048 14.1033 18.1448 14.59C17.6915 15.07 17.1615 15.4467 16.5548 15.72C15.9548 15.9933 15.3082 16.13 14.6148 16.13ZM14.6148 13.69C15.1015 13.69 15.5382 13.56 15.9248 13.3C16.3115 13.04 16.6148 12.6967 16.8348 12.27C17.0615 11.8433 17.1748 11.3767 17.1748 10.87C17.1748 10.35 17.0582 9.87666 16.8248 9.45C16.5982 9.01666 16.2882 8.67333 15.8948 8.42C15.5082 8.16 15.0815 8.03 14.6148 8.03C14.1348 8.03 13.7015 8.16 13.3148 8.42C12.9282 8.68 12.6215 9.02666 12.3948 9.46C12.1682 9.89333 12.0548 10.3633 12.0548 10.87C12.0548 11.3967 12.1715 11.8733 12.4048 12.3C12.6382 12.7267 12.9482 13.0667 13.3348 13.32C13.7282 13.5667 14.1548 13.69 14.6148 13.69Z" fill="#EFEDE8"/>
<path d="M25.8631 15.87H23.4431L20.1031 5.87H22.4931L24.6631 12.34L26.8231 5.87H29.2331L31.3931 12.34L33.5631 5.87H35.9531L32.6131 15.87H30.1931L28.0231 9.37L25.8631 15.87Z" fill="#EFEDE8"/>
<path d="M41.4508 16.13C40.5308 16.13 39.6908 15.8933 38.9308 15.42C38.1774 14.9467 37.5741 14.31 37.1208 13.51C36.6741 12.71 36.4508 11.8267 36.4508 10.86C36.4508 10.1333 36.5808 9.45333 36.8408 8.82C37.1008 8.18 37.4574 7.62 37.9108 7.14C38.3708 6.65333 38.9041 6.27333 39.5108 6C40.1174 5.72666 40.7641 5.59 41.4508 5.59C42.2308 5.59 42.9441 5.75666 43.5908 6.09C44.2441 6.41666 44.7974 6.86666 45.2508 7.44C45.7041 8.01333 46.0341 8.66666 46.2408 9.4C46.4474 10.1333 46.4941 10.9 46.3808 11.7H39.0708C39.1641 12.0733 39.3174 12.41 39.5308 12.71C39.7441 13.0033 40.0141 13.24 40.3408 13.42C40.6674 13.5933 41.0374 13.6833 41.4508 13.69C41.8774 13.6967 42.2641 13.5967 42.6108 13.39C42.9641 13.1767 43.2574 12.89 43.4908 12.53L45.9808 13.11C45.5741 13.9967 44.9674 14.7233 44.1608 15.29C43.3541 15.85 42.4508 16.13 41.4508 16.13ZM38.9908 9.87H43.9108C43.8374 9.47 43.6808 9.11 43.4408 8.79C43.2074 8.46333 42.9174 8.20333 42.5708 8.01C42.2241 7.81666 41.8508 7.72 41.4508 7.72C41.0508 7.72 40.6808 7.81666 40.3408 8.01C40.0008 8.19666 39.7108 8.45333 39.4708 8.78C39.2374 9.1 39.0774 9.46333 38.9908 9.87Z" fill="#EFEDE8"/>
<path d="M48.0178 15.87L48.0078 5.87H50.4478L50.4578 6.76C50.7978 6.4 51.2045 6.11666 51.6778 5.91C52.1511 5.69666 52.6611 5.59 53.2078 5.59C53.5745 5.59 53.9411 5.64333 54.3078 5.75L53.3478 8.21C53.0945 8.11 52.8411 8.06 52.5878 8.06C52.1945 8.06 51.8345 8.15666 51.5078 8.35C51.1878 8.53666 50.9311 8.79333 50.7378 9.12C50.5511 9.44 50.4578 9.79666 50.4578 10.19V15.87H48.0178Z" fill="#EFEDE8"/>
<path d="M55.4297 15.87V1.87H60.4297C61.1897 1.87 61.8764 2.06 62.4897 2.44C63.1097 2.82 63.5997 3.33 63.9597 3.97C64.3197 4.61 64.4997 5.31333 64.4997 6.08C64.4997 6.86666 64.313 7.58 63.9397 8.22C63.573 8.85333 63.0797 9.36 62.4597 9.74C61.8397 10.1133 61.163 10.3 60.4297 10.3H57.8697V15.87H55.4297ZM57.8697 7.86H60.1697C60.5164 7.86 60.833 7.77333 61.1197 7.6C61.4064 7.42666 61.633 7.19333 61.7997 6.9C61.973 6.60666 62.0597 6.28 62.0597 5.92C62.0597 5.55333 61.973 5.22333 61.7997 4.93C61.633 4.63666 61.4064 4.40333 61.1197 4.23C60.833 4.05666 60.5164 3.97 60.1697 3.97H57.8697V7.86Z" fill="#EFEDE8"/>
<path d="M65.5375 12.17V5.87H67.9775V11.53C67.9775 11.9233 68.0742 12.2833 68.2675 12.61C68.4608 12.93 68.7175 13.1867 69.0375 13.38C69.3642 13.5667 69.7208 13.66 70.1075 13.66C70.5075 13.66 70.8675 13.5667 71.1875 13.38C71.5075 13.1867 71.7642 12.93 71.9575 12.61C72.1508 12.2833 72.2475 11.9233 72.2475 11.53V5.87H74.6875L74.6975 15.87H72.2575L72.2475 14.96C71.9008 15.32 71.4908 15.6067 71.0175 15.82C70.5442 16.0267 70.0375 16.13 69.4975 16.13C68.7708 16.13 68.1075 15.9533 67.5075 15.6C66.9075 15.24 66.4275 14.7633 66.0675 14.17C65.7142 13.57 65.5375 12.9033 65.5375 12.17Z" fill="#EFEDE8"/>
<path d="M76.7578 15.87V0.869995H79.1978V15.87H76.7578Z" fill="#EFEDE8"/>
<path d="M84.5516 16.05C84.0316 16.0167 83.5282 15.9133 83.0416 15.74C82.5616 15.56 82.1349 15.3167 81.7616 15.01C81.3882 14.7033 81.1016 14.3367 80.9016 13.91L82.9616 13.03C83.0416 13.1633 83.1716 13.3067 83.3516 13.46C83.5316 13.6067 83.7449 13.73 83.9916 13.83C84.2449 13.93 84.5216 13.98 84.8216 13.98C85.0749 13.98 85.3149 13.9467 85.5416 13.88C85.7749 13.8067 85.9616 13.6967 86.1016 13.55C86.2482 13.4033 86.3216 13.2133 86.3216 12.98C86.3216 12.7333 86.2349 12.5433 86.0616 12.41C85.8949 12.27 85.6816 12.1667 85.4216 12.1C85.1682 12.0267 84.9216 11.96 84.6816 11.9C84.0482 11.7733 83.4582 11.5767 82.9116 11.31C82.3716 11.0433 81.9349 10.7 81.6016 10.28C81.2749 9.85333 81.1116 9.34 81.1116 8.74C81.1116 8.08 81.2849 7.51 81.6316 7.03C81.9849 6.55 82.4416 6.18 83.0016 5.92C83.5682 5.66 84.1782 5.53 84.8316 5.53C85.6249 5.53 86.3516 5.69666 87.0116 6.03C87.6782 6.35666 88.2049 6.81999 88.5916 7.42L86.6616 8.56C86.5682 8.4 86.4382 8.25333 86.2716 8.12C86.1049 7.98 85.9149 7.86666 85.7016 7.78C85.4882 7.68666 85.2649 7.63333 85.0316 7.62C84.7316 7.60666 84.4582 7.63333 84.2116 7.7C83.9649 7.76666 83.7649 7.88 83.6116 8.04C83.4649 8.2 83.3916 8.41333 83.3916 8.68C83.3916 8.93333 83.4916 9.12333 83.6916 9.25C83.8916 9.37 84.1316 9.46333 84.4116 9.53C84.6982 9.59666 84.9716 9.67 85.2316 9.75C85.8182 9.94333 86.3682 10.18 86.8816 10.46C87.4016 10.74 87.8182 11.0833 88.1316 11.49C88.4449 11.8967 88.5949 12.3833 88.5816 12.95C88.5816 13.5967 88.3882 14.1633 88.0016 14.65C87.6149 15.13 87.1149 15.4967 86.5016 15.75C85.8949 16.0033 85.2449 16.1033 84.5516 16.05Z" fill="#EFEDE8"/>
<path d="M94.5367 16.13C93.6167 16.13 92.7767 15.8933 92.0167 15.42C91.2634 14.9467 90.66 14.31 90.2067 13.51C89.7601 12.71 89.5367 11.8267 89.5367 10.86C89.5367 10.1333 89.6667 9.45333 89.9267 8.82C90.1867 8.18 90.5434 7.62 90.9967 7.14C91.4567 6.65333 91.9901 6.27333 92.5967 6C93.2034 5.72666 93.8501 5.59 94.5367 5.59C95.3167 5.59 96.0301 5.75666 96.6767 6.09C97.3301 6.41666 97.8834 6.86666 98.3367 7.44C98.7901 8.01333 99.1201 8.66666 99.3267 9.4C99.5334 10.1333 99.5801 10.9 99.4667 11.7H92.1567C92.2501 12.0733 92.4034 12.41 92.6167 12.71C92.8301 13.0033 93.1001 13.24 93.4267 13.42C93.7534 13.5933 94.1234 13.6833 94.5367 13.69C94.9634 13.6967 95.3501 13.5967 95.6967 13.39C96.0501 13.1767 96.3434 12.89 96.5767 12.53L99.0667 13.11C98.66 13.9967 98.0534 14.7233 97.2467 15.29C96.4401 15.85 95.5367 16.13 94.5367 16.13ZM92.0767 9.87H96.9967C96.9234 9.47 96.7667 9.11 96.5267 8.79C96.2934 8.46333 96.0034 8.20333 95.6567 8.01C95.3101 7.81666 94.9367 7.72 94.5367 7.72C94.1367 7.72 93.7667 7.81666 93.4267 8.01C93.0867 8.19666 92.7967 8.45333 92.5567 8.78C92.3234 9.1 92.1634 9.46333 92.0767 9.87Z" fill="#EFEDE8"/>
</g>
</svg>
