<svg width="28" height="28" viewBox="0 0 28 28" fill="none" xmlns="http://www.w3.org/2000/svg">
<path d="M14 17.5C15.933 17.5 17.5 15.933 17.5 14C17.5 12.067 15.933 10.5 14 10.5C12.067 10.5 10.5 12.067 10.5 14C10.5 15.933 12.067 17.5 14 17.5Z" stroke="#EFEDE8" stroke-opacity="0.3" stroke-width="2" stroke-linecap="round" stroke-linejoin="round"/>
<path d="M21.8482 17.1819C21.707 17.5018 21.6649 17.8566 21.7272 18.2007C21.7896 18.5447 21.9537 18.8622 22.1982 19.1122L22.2618 19.1758C22.459 19.3728 22.6155 19.6067 22.7222 19.8643C22.829 20.1218 22.8839 20.3978 22.8839 20.6766C22.8839 20.9553 22.829 21.2313 22.7222 21.4889C22.6155 21.7464 22.459 21.9803 22.2618 22.1773C22.0648 22.3745 21.8308 22.531 21.5733 22.6377C21.3158 22.7445 21.0398 22.7994 20.761 22.7994C20.4823 22.7994 20.2063 22.7445 19.9487 22.6377C19.6912 22.531 19.4573 22.3745 19.2603 22.1773L19.1966 22.1137C18.9467 21.8692 18.6292 21.7051 18.2851 21.6428C17.9411 21.5804 17.5862 21.6225 17.2663 21.7637C16.9526 21.8981 16.6851 22.1214 16.4967 22.4059C16.3082 22.6905 16.2071 23.0239 16.2057 23.3652V23.5455C16.2057 24.1081 15.9823 24.6476 15.5844 25.0454C15.1866 25.4432 14.6471 25.6667 14.0845 25.6667C13.5219 25.6667 12.9824 25.4432 12.5846 25.0454C12.1868 24.6476 11.9633 24.1081 11.9633 23.5455V23.45C11.9551 23.099 11.8415 22.7585 11.6372 22.4729C11.4329 22.1873 11.1474 21.9697 10.8179 21.8485C10.498 21.7073 10.1431 21.6652 9.79905 21.7276C9.455 21.79 9.13752 21.954 8.88755 22.1985L8.82392 22.2622C8.62691 22.4594 8.39297 22.6158 8.13546 22.7226C7.87795 22.8293 7.60192 22.8843 7.32316 22.8843C7.0444 22.8843 6.76837 22.8293 6.51086 22.7226C6.25335 22.6158 6.01941 22.4594 5.8224 22.2622C5.62518 22.0652 5.46872 21.8312 5.36197 21.5737C5.25522 21.3162 5.20028 21.0402 5.20028 20.7614C5.20028 20.4826 5.25522 20.2066 5.36197 19.9491C5.46872 19.6916 5.62518 19.4577 5.8224 19.2606L5.88604 19.197C6.13055 18.947 6.29457 18.6296 6.35695 18.2855C6.41934 17.9415 6.37722 17.5866 6.23604 17.2667C6.10159 16.953 5.87835 16.6855 5.5938 16.497C5.30925 16.3086 4.97581 16.2075 4.63452 16.2061H4.45422C3.89164 16.2061 3.3521 15.9826 2.9543 15.5848C2.55649 15.187 2.33301 14.6475 2.33301 14.0849C2.33301 13.5223 2.55649 12.9828 2.9543 12.585C3.3521 12.1872 3.89164 11.9637 4.45422 11.9637H4.54967C4.90073 11.9555 5.24119 11.8418 5.52681 11.6376C5.81243 11.4333 6.02998 11.1478 6.15119 10.8182C6.29237 10.4983 6.33449 10.1435 6.2721 9.79942C6.20972 9.45536 6.0457 9.13788 5.80119 8.88792L5.73755 8.82428C5.54033 8.62728 5.38387 8.39333 5.27712 8.13582C5.17038 7.87831 5.11543 7.60229 5.11543 7.32353C5.11543 7.04477 5.17038 6.76874 5.27712 6.51123C5.38387 6.25372 5.54033 6.01977 5.73755 5.82277C5.93456 5.62555 6.1685 5.46909 6.42601 5.36234C6.68352 5.25559 6.95955 5.20065 7.23831 5.20065C7.51707 5.20065 7.7931 5.25559 8.05061 5.36234C8.30812 5.46909 8.54207 5.62555 8.73907 5.82277L8.80271 5.8864C9.05267 6.13091 9.37015 6.29493 9.7142 6.35732C10.0583 6.4197 10.4131 6.37759 10.733 6.2364H10.8179C11.1316 6.10196 11.3991 5.87872 11.5875 5.59417C11.776 5.30962 11.8771 4.97618 11.8785 4.63489V4.45459C11.8785 3.89201 12.1019 3.35247 12.4998 2.95466C12.8976 2.55686 13.4371 2.33337 13.9997 2.33337C14.5623 2.33337 15.1018 2.55686 15.4996 2.95466C15.8974 3.35247 16.1209 3.89201 16.1209 4.45459V4.55004C16.1222 4.89133 16.2234 5.22477 16.4118 5.50932C16.6003 5.79387 16.8678 6.01711 17.1815 6.15156C17.5014 6.29274 17.8562 6.33485 18.2003 6.27247C18.5444 6.21009 18.8618 6.04606 19.1118 5.80156L19.1754 5.73792C19.3724 5.5407 19.6064 5.38424 19.8639 5.27749C20.1214 5.17074 20.3974 5.1158 20.6762 5.1158C20.955 5.1158 21.231 5.17074 21.4885 5.27749C21.746 5.38424 21.9799 5.5407 22.1769 5.73792C22.3742 5.93492 22.5306 6.16887 22.6374 6.42638C22.7441 6.68389 22.7991 6.95992 22.7991 7.23868C22.7991 7.51744 22.7441 7.79346 22.6374 8.05098C22.5306 8.30849 22.3742 8.54243 22.1769 8.73944L22.1133 8.80307C21.8688 9.05303 21.7048 9.37051 21.6424 9.71457C21.58 10.0586 21.6221 10.4135 21.7633 10.7334V10.8182C21.8978 11.1319 22.121 11.3995 22.4055 11.5879C22.6901 11.7763 23.0235 11.8775 23.3648 11.8788H23.5451C24.1077 11.8788 24.6472 12.1023 25.0451 12.5001C25.4429 12.8979 25.6663 13.4375 25.6663 14C25.6663 14.5626 25.4429 15.1022 25.0451 15.5C24.6472 15.8978 24.1077 16.1213 23.5451 16.1213H23.4497C23.1084 16.1226 22.7749 16.2237 22.4904 16.4122C22.2058 16.6006 21.9826 16.8682 21.8482 17.1819Z" stroke="#EFEDE8" stroke-opacity="0.3" stroke-width="2" stroke-linecap="round" stroke-linejoin="round"/>
</svg>
